<?xml version="1.0" encoding="UTF-8"?>
<svg version="1.1" xmlns="http://www.w3.org/2000/svg" width="480" height="336">
<path d="M0 0 C158.4 0 316.8 0 480 0 C480 110.88 480 221.76 480 336 C321.6 336 163.2 336 0 336 C0 225.12 0 114.24 0 0 Z " fill="#FDFDFC" transform="translate(0,0)"/>
<path d="M0 0 C0.91966553 0.43530029 0.91966553 0.43530029 1.85791016 0.87939453 C12.47348908 6.00495894 20.79145015 12.60620784 29 21 C30.04607422 22.01513672 30.04607422 22.01513672 31.11328125 23.05078125 C38.1596207 30.34710171 44.02568526 41.2173776 44.17578125 51.484375 C44.19962891 52.33773437 44.22347656 53.19109375 44.24804688 54.0703125 C44.29063412 55.84090946 44.32208991 57.6118131 44.34179688 59.3828125 C44.59004218 67.07264378 46.6781853 72.51635587 51.8125 78.25 C54 81 54 81 53.9375 83.1875 C53 85 53 85 51 88 C52.175625 88.495 53.35125 88.99 54.5625 89.5 C56.484375 90.85546875 56.484375 90.85546875 58 93 C58.90902258 100.24867143 58.55606442 107.81437536 54.125 113.875 C52.17652569 116.05846618 50.47628592 117.34914272 48 119 C48.47577393 116.43082078 49.08034543 114.88108877 50.5625 112.6875 C52.37409028 109.30061383 52.22262474 106.78462062 52 103 C49.69 102.34 47.38 101.68 45 101 C44.608125 101.515625 44.21625 102.03125 43.8125 102.5625 C42 104 42 104 39.5 103.9375 C36.51714069 102.81892776 35.7708166 101.57573324 34 99 C33.01 98.67 32.02 98.34 31 98 C32.19899698 101.0831351 33.47700477 104.06279492 35 107 C33.68 107.33 32.36 107.66 31 108 C29 105 29 105 29 101 C28.01 101.495 28.01 101.495 27 102 C27.33 106.62 27.66 111.24 28 116 C27.01 116 26.02 116 25 116 C23.56976822 111.32790951 22.59619955 106.86896303 22 102 C20.05396726 101.40929986 20.05396726 101.40929986 18 101 C16.01230506 102.98769494 16.5660126 106.76190368 16.37890625 109.45703125 C15.99620288 112.02548378 15.2874172 113.7639596 14 116 C14.99 117.485 14.99 117.485 16 119 C16.39958487 122.42017557 16.5635348 125.87293041 15 129 C13.02 128.67 11.04 128.34 9 128 C8.505 130.97 8.505 130.97 8 134 C8.845625 133.649375 9.69125 133.29875 10.5625 132.9375 C14.49699444 131.86445606 17.04988208 132.08843433 21 133 C23 135 23 135 23 139 C19.41422404 140.79288798 15.20448207 140.00943183 11.26171875 139.9375 C8.06591702 139.88601241 8.06591702 139.88601241 5.2890625 140.62890625 C3 141 3 141 -0.3125 138.9375 C-3 136 -3 136 -3.38671875 133.1328125 C-2.92662142 129.40555941 -1.78937987 127.87644598 0.5 124.9375 C4.68472398 118.76608889 5.13053335 113.29344083 4 106 C3.06053843 103.70435282 3.06053843 103.70435282 2 102 C1.484375 102.825 0.96875 103.65 0.4375 104.5 C-2 107 -2 107 -5.5 107.375 C-9 107 -9 107 -10.921875 106.48046875 C-13.26234448 105.93934517 -15.35098145 105.90222032 -17.75 105.9375 C-19.85375 105.9684375 -19.85375 105.9684375 -22 106 C-22 109.63 -22 113.26 -22 117 C-20.02 117.99 -20.02 117.99 -18 119 C-18 119.66 -18 120.32 -18 121 C-22.95 121 -27.9 121 -33 121 C-30.41004734 125.31658777 -27.66084723 129.33115218 -24.71875 133.40234375 C-20.38508881 139.95208169 -19.52666575 144.59326168 -19.625 152.3125 C-19.61339844 153.21162109 -19.60179687 154.11074219 -19.58984375 155.03710938 C-19.61692514 161.27936901 -20.75588551 166.17598859 -23 172 C-20.03 171.67 -17.06 171.34 -14 171 C-13.62230469 171.70125 -13.24460937 172.4025 -12.85546875 173.125 C-7.13020981 182.99336202 1.2588742 189.95160182 12 194 C15.31583451 194.7783777 15.31583451 194.7783777 18 195 C18 196.32 18 197.64 18 199 C17.43716309 199.00410889 16.87432617 199.00821777 16.29443359 199.01245117 C4.25909517 199.16574415 -5.96691433 199.81290763 -17 205 C-18.47533203 205.68449219 -18.47533203 205.68449219 -19.98046875 206.3828125 C-27.69765767 210.27866236 -36.37915735 215.85960287 -40.421875 223.81640625 C-42.32149804 230.99133381 -41.22835845 238.79825329 -40 246 C-39.88803927 248.67810075 -39.95374701 251.31732686 -40 254 C-42.23828125 254.29296875 -42.23828125 254.29296875 -45 254 C-47.10546875 252.05078125 -47.10546875 252.05078125 -49.1875 249.3125 C-49.96609375 248.30960938 -50.7446875 247.30671875 -51.546875 246.2734375 C-52.36678309 245.18394364 -53.18446214 244.09276903 -54 243 C-69.83198719 221.85280818 -90.13437907 203.88465835 -117 199 C-117.33 197.35 -117.66 195.7 -118 194 C-112.21426786 189.85013582 -106.86316264 187.85720662 -99.9375 186.375 C-88.09681763 184.03949468 -88.09681763 184.03949468 -79 176.625 C-78.401875 175.87476563 -77.80375 175.12453125 -77.1875 174.3515625 C-75.80831095 172.08650136 -75.80831095 172.08650136 -76.07421875 169.6328125 C-77.26226413 166.25415179 -78.97969029 163.30665489 -80.8125 160.25 C-84.95780113 153.13527327 -88.55321966 145.82146756 -92.0625 138.375 C-95.87894138 130.28100167 -99.82462296 122.41480742 -104.4765625 114.76953125 C-107.75616197 108.8073876 -108.34098236 103.47423793 -108.5625 96.8125 C-108.62252935 95.21469755 -108.68618203 93.61702605 -108.75390625 92.01953125 C-108.77783447 91.31932861 -108.8017627 90.61912598 -108.82641602 89.89770508 C-108.94757337 87.776451 -108.94757337 87.776451 -110 85 C-112.03993462 61.96702781 -106.59785531 39.52812569 -91.8671875 21.37109375 C-89.64622184 18.83671656 -87.36260614 16.40258256 -85 14 C-84.28972656 13.27683594 -83.57945313 12.55367187 -82.84765625 11.80859375 C-64.13175825 -6.02735245 -23.24233483 -11.32948686 0 0 Z " fill="#181717" transform="translate(157,43)"/>
<path d="M0 0 C1.39572052 -0.02736707 2.79160221 -0.04655989 4.1875 -0.0625 C4.96480469 -0.07410156 5.74210938 -0.08570312 6.54296875 -0.09765625 C9 0 9 0 11.16699219 0.51098633 C14.73198581 1.12635019 18.18653848 1.02823125 21.78515625 0.921875 C23.30010907 0.89463162 24.8150846 0.86862717 26.33007812 0.84375 C28.70285352 0.80043411 31.07444015 0.74963807 33.4465332 0.67773438 C35.74709502 0.61109971 38.04635764 0.57636573 40.34765625 0.546875 C41.40872337 0.50345978 41.40872337 0.50345978 42.4912262 0.45916748 C46.20077358 0.43903364 47.68381484 0.69588052 50.39916992 3.30761719 C52.34594983 6.5818415 53.38840537 9.82362701 54.25 13.5 C54.41983398 14.19544922 54.58966797 14.89089844 54.76464844 15.60742188 C56.23156023 22.0830848 56.40832551 28.3760528 56 35 C54.88625 35.309375 53.7725 35.61875 52.625 35.9375 C46.74550401 38.12521944 42.12806166 42.35693649 38 47 C37.17130876 49.15797723 37.17130876 49.15797723 37 51 C41.41211752 51 42.25662996 50.40308258 45.75 48 C50.53974811 44.97265179 53.41498283 44.37944254 59 45 C59 45.99 59 46.98 59 48 C57.68 48 56.36 48 55 48 C55 48.99 55 49.98 55 51 C55.67546875 50.95359375 56.3509375 50.9071875 57.046875 50.859375 C64.36735078 50.56317078 64.36735078 50.56317078 67.625 52.8125 C69 55 69 55 69 58 C63.45991065 57.24453327 63.45991065 57.24453327 61.08984375 55.984375 C57.22440444 54.16364471 53.17060928 54.46562149 49 55 C46.61772331 55.89731635 46.61772331 55.89731635 44.375 57.0625 C39.70707702 59.37163211 37.01270167 59.55566604 32 58 C29.9375 55.4375 29.9375 55.4375 29 52 C29.23046875 49.96484375 29.23046875 49.96484375 29.625 47.875 C29.74875 46.59625 29.8725 45.3175 30 44 C25.9791028 39.59977287 20.72627302 38.3690895 15.1875 36.75 C14.30384766 36.481875 13.42019531 36.21375 12.50976562 35.9375 C10.34266899 35.28151399 8.17301041 34.63606523 6 34 C5.3125 31.6875 5.3125 31.6875 5 29 C6.50470567 26.71469617 7.66574485 26.1079546 10.26171875 25.26953125 C11.06222656 25.11871094 11.86273438 24.96789062 12.6875 24.8125 C13.49574219 24.65394531 14.30398437 24.49539062 15.13671875 24.33203125 C16.05904297 24.16767578 16.05904297 24.16767578 17 24 C15.50440298 20.68994771 13.59622173 18.06763702 11.3125 15.25 C10.60738281 14.37859375 9.90226563 13.5071875 9.17578125 12.609375 C6.61021703 9.53254035 3.95904165 6.54467037 1.25 3.59375 C0 2 0 2 0 0 Z " fill="#F9F9F9" transform="translate(142,83)"/>
<path d="M0 0 C0 1.98 0 3.96 0 6 C-1.98 6 -3.96 6 -6 6 C-5.505 6.99 -5.505 6.99 -5 8 C-4.59664272 12.19491568 -4.75801933 14.5250009 -6.6875 18.3125 C-9.88398551 22.02733452 -12.50757929 22.81454092 -17.33203125 23.4140625 C-18.48058594 23.48367187 -19.62914062 23.55328125 -20.8125 23.625 C-22.55466797 23.73714844 -22.55466797 23.73714844 -24.33203125 23.8515625 C-25.65267578 23.92503906 -25.65267578 23.92503906 -27 24 C-27 24.99 -27 25.98 -27 27 C-26.13048706 27.10489746 -26.13048706 27.10489746 -25.2434082 27.21191406 C-22.59733505 27.54092106 -19.95523273 27.89519713 -17.3125 28.25 C-15.94448242 28.41435547 -15.94448242 28.41435547 -14.54882812 28.58203125 C-9.30450326 29.3067016 -5.79915083 30.00740972 -2 34 C-0.4452331 37.10953379 -0.71355563 39.56266761 -1 43 C-3.95551138 48.79734925 -7.91768613 51.59894824 -13.75 54.25 C-20.83740943 55.88555602 -26.98223004 55.83315652 -33.37109375 52.12890625 C-35.59313216 50.58893239 -36.86451123 49.48388169 -38 47 C-38.5032141 43.60330484 -38.75450877 41.19725871 -36.875 38.21484375 C-35.65424696 36.74785928 -34.33273446 35.36605282 -33 34 C-33.825 33.608125 -34.65 33.21625 -35.5 32.8125 C-38 31 -38 31 -38.6875 28.625 C-37.63058157 24.58949326 -35.38635218 23.37044652 -32 21 C-31.34 21 -30.68 21 -30 21 C-30.66 20.360625 -31.32 19.72125 -32 19.0625 C-34.32037286 15.50942906 -34.69841772 13.45432491 -34.53125 9.2890625 C-33.60070906 5.27952582 -31.04606629 2.65149811 -28 0 C-20.80393742 -3.59803129 -7.89213795 -0.59643688 0 0 Z " fill="#A0342E" transform="translate(441,123)"/>
<path d="M0 0 C3.54504705 1.80727889 6.33892388 4.39634422 8.13671875 7.9609375 C9.94244487 14.53893978 10.02631902 22.31506856 7.45703125 28.640625 C5.01412016 32.62039096 2.01354679 35.24127348 -2.20703125 37.3515625 C-7.93058005 37.8337952 -13.31665659 38.09420969 -18.70703125 35.9765625 C-23.2814852 31.17338585 -26.42727478 25.51617248 -26.76953125 18.7890625 C-26.40260636 13.18602024 -24.5422212 7.85355174 -20.67578125 3.7109375 C-14.65264485 -1.42644355 -7.63524277 -2.24327487 0 0 Z " fill="#9F302B" transform="translate(390.20703125,59.6484375)"/>
<path d="M0 0 C2.97 0 5.94 0 9 0 C9.33 6.93 9.66 13.86 10 21 C11.98 19.68 13.96 18.36 16 17 C18.59765625 16.43359375 18.59765625 16.43359375 21.0625 16.4375 C21.87847656 16.41558594 22.69445312 16.39367187 23.53515625 16.37109375 C27.20676338 17.30790635 28.63755583 19.07497667 31 22 C31.44003142 24.78837973 31.59085432 26.94052053 31.48828125 29.70703125 C31.48120651 30.43242599 31.47413177 31.15782074 31.46684265 31.90519714 C31.43898406 34.20870703 31.37627191 36.50973251 31.3125 38.8125 C31.28740563 40.37952203 31.26459444 41.9465824 31.24414062 43.51367188 C31.18918681 47.34339656 31.10298226 51.17127797 31 55 C28.03 55 25.06 55 22 55 C21.97494385 54.15703369 21.9498877 53.31406738 21.92407227 52.44555664 C21.82911845 49.32758326 21.72987552 46.20978497 21.62768555 43.09204102 C21.58428777 41.74085853 21.5426163 40.38961947 21.50268555 39.03833008 C21.44510048 37.09963299 21.38085702 35.16113724 21.31640625 33.22265625 C21.27974854 32.05484619 21.24309082 30.88703613 21.20532227 29.68383789 C21.29923812 27.08220205 21.29923812 27.08220205 20 26 C15.69003188 26.40660077 12.91737523 27.04131238 9 29 C9 37.58 9 46.16 9 55 C6.03 55 3.06 55 0 55 C0 36.85 0 18.7 0 0 Z " fill="#9F302A" transform="translate(288,105)"/>
<path d="M0 0 C1.15465779 2.42890239 2.0011524 4.62862737 2.796875 7.17578125 C3.0353717 7.89734909 3.27386841 8.61891693 3.51959229 9.36235046 C4.02129482 10.89065753 4.51505261 12.42159198 5.00146484 13.95483398 C5.74544269 16.29814581 6.51294103 18.63265687 7.28515625 20.96679688 C7.76963306 22.45266799 8.25275111 23.93898296 8.734375 25.42578125 C8.96243835 26.12383377 9.19050171 26.82188629 9.42547607 27.54109192 C10.48539372 30.90081873 11 33.4337336 11 37 C11.66 37 12.32 37 13 37 C13.10884521 36.33395752 13.21769043 35.66791504 13.32983398 34.98168945 C14.15746385 31.29941495 15.41668234 27.82545913 16.72265625 24.29296875 C16.98759384 23.56757401 17.25253143 22.84217926 17.52549744 22.09480286 C18.36776423 19.79110656 19.21505266 17.48929494 20.0625 15.1875 C20.63640079 13.62056466 21.20997213 12.05350862 21.78320312 10.48632812 C23.18499094 6.65614382 24.5912836 2.82764115 26 -1 C30.455 -0.01 30.455 -0.01 35 1 C34.43673282 6.92422206 32.69619391 11.84529332 30.4375 17.328125 C29.91047485 18.63435822 29.91047485 18.63435822 29.37280273 19.96697998 C28.2558517 22.7310183 27.12824989 25.49055706 26 28.25 C24.87417599 31.02466105 23.75051467 33.80019006 22.62719727 36.5758667 C21.92914395 38.29839049 21.22917816 40.02014075 20.52709961 41.74102783 C20.2100708 42.51903748 19.89304199 43.29704712 19.56640625 44.09863281 C19.28740479 44.78145325 19.00840332 45.46427368 18.72094727 46.16778564 C18.09487634 47.75888142 17.54069867 49.37790398 17 51 C14.03 51 11.06 51 8 51 C4.08002604 41.86833159 0.52816899 32.6196753 -2.93139648 23.3059082 C-3.82335563 20.90832004 -4.72309488 18.51373835 -5.62304688 16.11914062 C-6.19318163 14.5887179 -6.76286042 13.05812522 -7.33203125 11.52734375 C-7.60070511 10.81488998 -7.86937897 10.10243622 -8.14619446 9.36839294 C-9.22838787 6.43488831 -10 4.1540213 -10 1 C-3.1919747 -1.63037341 -3.1919747 -1.63037341 0 0 Z " fill="#A0312C" transform="translate(246,46)"/>
<path d="M0 0 C0.99 0.66 1.98 1.32 3 2 C1.125 6.75 1.125 6.75 0 9 C-2.34762739 8.45823983 -4.49553804 7.80854212 -6.75 6.9375 C-12.14614367 5.38092009 -16.15631937 5.07815968 -21.25 7.625 C-25.28253761 11.10764612 -27.68456576 13.53124425 -28.3828125 18.99609375 C-28.61422965 25.66862168 -28.41490839 31.69950527 -24 37 C-20.13542279 40.43409266 -16.35170422 41.53949865 -11.1328125 41.2734375 C-7.3572106 40.78938597 -3.68185516 39.95455504 0 39 C0.99 40.98 1.98 42.96 3 45 C-4.7968623 49.90088487 -11.31171511 51.18091708 -20.43359375 49.5703125 C-27.23186034 47.66161373 -32.23406199 43.77881672 -36.38671875 38.10546875 C-40.4318109 30.68236981 -40.34827781 20.52793901 -38.375 12.4375 C-35.51257819 5.89482158 -29.69740703 1.57772864 -23.6875 -1.9375 C-15.52052971 -4.29069483 -7.71502363 -3.50390656 0 0 Z " fill="#A02F2A" transform="translate(279,111)"/>
<path d="M0 0 C0.84046875 -0.04898438 1.6809375 -0.09796875 2.546875 -0.1484375 C5.56627933 0.43624484 7.74270727 1.35952888 10.04101562 3.44042969 C12.81732752 7.88297723 12.13590723 13.61836302 12.125 18.6875 C12.145625 19.90501953 12.16625 21.12253906 12.1875 22.37695312 C12.23455933 25.37698568 12.25444446 28.37467407 12.25 31.375 C14.725 32.365 14.725 32.365 17.25 33.375 C16.9375 35.25 16.9375 35.25 16.25 37.375 C12.78076119 39.68782587 11.32794425 39.79978586 7.25 39.375 C5.375 37.875 5.375 37.875 4.25 36.375 C0.70481116 37.77259905 0.70481116 37.77259905 -2.75 39.375 C-8.61390959 40.05160495 -8.61390959 40.05160495 -11.5078125 38.328125 C-13.68626824 36.53905507 -15.47957812 34.91584375 -16.75 32.375 C-17.31685151 25.45941158 -17.31685151 25.45941158 -15.3125 21.625 C-10.32127186 17.24245822 -4.33974544 15.05087133 2.25 14.375 C2.292721 12.70888095 2.29063832 11.04117115 2.25 9.375 C1.92 9.045 1.59 8.715 1.25 8.375 C-3.32071175 8.71995938 -6.33325171 9.23159158 -9.75 12.375 C-11.6875 11.5625 -11.6875 11.5625 -13.75 10.375 C-14.08 9.385 -14.41 8.395 -14.75 7.375 C-13.45982586 6.39386757 -12.16780894 5.41515801 -10.875 4.4375 C-9.79605469 3.61958984 -9.79605469 3.61958984 -8.6953125 2.78515625 C-5.67233012 0.59379754 -3.70343559 0.14589292 0 0 Z " fill="#9F2F29" transform="translate(342.75,121.625)"/>
<path d="M0 0 C2.87029869 1.79393668 4.49131638 2.98263276 6 6 C6.08639869 8.40838678 6.11567764 10.78733881 6.09765625 13.1953125 C6.0962413 13.90275604 6.09482635 14.61019958 6.09336853 15.33908081 C6.087766 17.60109669 6.07521318 19.86301398 6.0625 22.125 C6.05748532 23.65755065 6.05292236 25.19010286 6.04882812 26.72265625 C6.03779577 30.48180888 6.02052952 34.24088772 6 38 C3.03 38 0.06 38 -3 38 C-3.02505615 37.15703369 -3.0501123 36.31406738 -3.07592773 35.44555664 C-3.17088155 32.32758326 -3.27012448 29.20978497 -3.37231445 26.09204102 C-3.41571223 24.74085853 -3.4573837 23.38961947 -3.49731445 22.03833008 C-3.55489952 20.09963299 -3.61914298 18.16113724 -3.68359375 16.22265625 C-3.72025146 15.05484619 -3.75690918 13.88703613 -3.79467773 12.68383789 C-3.70076188 10.08220205 -3.70076188 10.08220205 -5 9 C-8.17668363 8.71762812 -10.30997413 8.63542126 -13.16113281 10.1418457 C-15.71161848 12.71908235 -15.53943352 14.39596783 -15.609375 17.98046875 C-15.64160156 19.14384766 -15.67382812 20.30722656 -15.70703125 21.50585938 C-15.72830078 23.32827148 -15.72830078 23.32827148 -15.75 25.1875 C-15.77964844 26.41404297 -15.80929687 27.64058594 -15.83984375 28.90429688 C-15.91062899 31.93626453 -15.96328413 34.96745933 -16 38 C-18.97 38 -21.94 38 -25 38 C-25 25.79 -25 13.58 -25 1 C-22.03 1 -19.06 1 -16 1 C-15.67 1.99 -15.34 2.98 -15 4 C-14.195625 3.34 -13.39125 2.68 -12.5625 2 C-8.56511496 -0.65229339 -4.65847527 -0.8750727 0 0 Z " fill="#9F312C" transform="translate(391,122)"/>
<path d="M0 0 C0.33 0 0.66 0 1 0 C1.01401855 0.84594727 1.01401855 0.84594727 1.02832031 1.70898438 C1.08257486 4.30681992 1.16610683 6.90295919 1.25 9.5 C1.26417969 10.386875 1.27835938 11.27375 1.29296875 12.1875 C1.57853425 19.95488148 3.62499527 25.45436701 8.8125 31.25 C11 34 11 34 10.9375 36.1875 C10 38 10 38 8 41 C9.175625 41.495 10.35125 41.99 11.5625 42.5 C13.484375 43.85546875 13.484375 43.85546875 15 46 C15.90902258 53.24867143 15.55606442 60.81437536 11.125 66.875 C9.17652569 69.05846618 7.47628592 70.34914272 5 72 C5.47577393 69.43082078 6.08034543 67.88108877 7.5625 65.6875 C9.37409028 62.30061383 9.22262474 59.78462062 9 56 C6.69 55.34 4.38 54.68 2 54 C1.608125 54.515625 1.21625 55.03125 0.8125 55.5625 C-1 57 -1 57 -3.5 56.9375 C-6.48285931 55.81892776 -7.2291834 54.57573324 -9 52 C-9.99 51.67 -10.98 51.34 -12 51 C-10.80100302 54.0831351 -9.52299523 57.06279492 -8 60 C-9.98 60.495 -9.98 60.495 -12 61 C-14 58 -14 58 -14 54 C-16.475 54.495 -16.475 54.495 -19 55 C-18.74609375 53.140625 -18.74609375 53.140625 -18 51 C-13.17451647 47.4385953 -7.45779096 46.37207695 -1.57421875 46.59375 C2.91306304 47.3019098 6.91973826 49.05536462 11 51 C9.24545615 47.81765895 9.24545615 47.81765895 7 45 C5.31816052 44.76712992 3.6287584 44.58735834 1.9375 44.4375 C1.01839844 44.35371094 0.09929687 44.26992187 -0.84765625 44.18359375 C-1.91306641 44.09271484 -1.91306641 44.09271484 -3 44 C-3 43.01 -3 42.02 -3 41 C-1.68 41 -0.36 41 1 41 C1 40.01 1 39.02 1 38 C-6.68002296 38.92994015 -11.87829191 41.29781842 -18 46 C-19.32 45.34 -20.64 44.68 -22 44 C-21.14445572 38.52451658 -17.0125343 35.48419348 -13 32 C-9.29626644 29.32260224 -6.70215162 28 -2 28 C-2.01160156 27.28972656 -2.02320313 26.57945313 -2.03515625 25.84765625 C-2.04417969 24.92855469 -2.05320313 24.00945312 -2.0625 23.0625 C-2.07410156 22.14597656 -2.08570313 21.22945312 -2.09765625 20.28515625 C-2 18 -2 18 -1 17 C-0.76298761 14.14122091 -0.57780818 11.30116703 -0.4375 8.4375 C-0.39431641 7.63119141 -0.35113281 6.82488281 -0.30664062 5.99414062 C-0.20024738 3.99631195 -0.09959112 1.9981793 0 0 Z " fill="#212020" transform="translate(200,90)"/>
<path d="M0 0 C2.97 0 5.94 0 9 0 C9 4.29 9 8.58 9 13 C11.64 13 14.28 13 17 13 C17 15.31 17 17.62 17 20 C14.36 20 11.72 20 9 20 C9.33 27.92 9.66 35.84 10 44 C12.97 43.505 12.97 43.505 16 43 C16.66 44.98 17.32 46.96 18 49 C14.9265734 50.77148894 12.54086599 51.34573975 9 51.4375 C8.154375 51.47746094 7.30875 51.51742187 6.4375 51.55859375 C2.8846843 50.74440682 1.96957374 48.9995673 0 46 C-0.45410156 43.0456543 -0.45410156 43.0456543 -0.390625 39.82421875 C-0.37773437 38.66728516 -0.36484375 37.51035156 -0.3515625 36.31835938 C-0.31804687 35.12017578 -0.28453125 33.92199219 -0.25 32.6875 C-0.23195313 31.46998047 -0.21390625 30.25246094 -0.1953125 28.99804688 C-0.14825131 25.99789578 -0.0825131 22.99935111 0 20 C-1.65 20 -3.3 20 -5 20 C-5 18.02 -5 16.04 -5 14 C-3.35 14 -1.7 14 0 14 C0 9.38 0 4.76 0 0 Z " fill="#A0322C" transform="translate(344,46)"/>
<path d="M0 0 C2.7764819 1.02698866 3.84928371 1.84928371 6 4 C6 5.32 6 6.64 6 8 C3.75 9.125 3.75 9.125 1 10 C-1 9.125 -1 9.125 -3 8 C-5.5 7.41666667 -5.5 7.41666667 -8 8 C-10.57645266 9.68933955 -10.57645266 9.68933955 -12 13 C-12.59427812 18.37785016 -13.25444433 24.37526331 -10 29 C-6.62649951 30.08916154 -6.62649951 30.08916154 -3 30 C-0.5787681 28.7089129 -0.5787681 28.7089129 1 27 C4.16115776 28.36983503 4.9927092 28.9890638 7 32 C1.03192777 37.05988732 -1.92011291 38.48323033 -9.9453125 38.40625 C-13.94691801 37.87406717 -15.91088548 36.64248202 -18.6640625 33.76171875 C-23.11939058 27.88641768 -23.78356593 22.11925614 -23 15 C-21.92011009 9.11354128 -19.09054905 5.0420655 -14.44921875 1.29296875 C-9.78214837 -1.17082758 -5.09261256 -0.90582885 0 0 Z " fill="#9F2F2A" transform="translate(328,59)"/>
<path d="M0 0 C1.32 0 2.64 0 4 0 C4 11.22 4 22.44 4 34 C2.35 33.67 0.7 33.34 -1 33 C-2.34977849 33.63270867 -3.68352881 34.30062468 -5 35 C-7.4375 35.4375 -7.4375 35.4375 -10 35 C-15.69999051 30.07728093 -15.69999051 30.07728093 -16.30859375 25.86328125 C-16.54823257 21.12133734 -16.4270655 17.75395672 -13.5 13.875 C-10.98640848 11.31941531 -9.26749041 10.56450433 -5.6875 10.5 C-2 11 -2 11 -1 12 C-0.67 8.04 -0.34 4.08 0 0 Z " fill="#2C2C2C" transform="translate(327,174)"/>
<path d="M0 0 C14 0 14 0 17.875 2.125 C20 5 20 5 20.5625 8 C19.93949139 11.32271256 19.02301845 13.30264207 17 16 C16.01 16.66 15.02 17.32 14 18 C14.66128906 18.75925781 15.32257813 19.51851562 16.00390625 20.30078125 C16.84824219 21.29464844 17.69257813 22.28851563 18.5625 23.3125 C19.40941406 24.29863281 20.25632812 25.28476563 21.12890625 26.30078125 C21.74636719 27.19152344 22.36382812 28.08226562 23 29 C22.67 29.99 22.34 30.98 22 32 C20.27734375 31.875 20.27734375 31.875 18 31 C15.97735885 28.5105955 14.20719676 25.97660871 12.44335938 23.3046875 C9.64856832 19.29413811 9.15189647 19.03037929 4 18 C4 22.62 4 27.24 4 32 C2.68 32 1.36 32 0 32 C0 21.44 0 10.88 0 0 Z " fill="#1D1C1D" transform="translate(244,220)"/>
<path d="M0 0 C0.82113281 0.15339844 1.64226562 0.30679688 2.48828125 0.46484375 C6.38276543 1.05833022 10.25877128 1.34162216 14.1875 1.5625 C14.89841797 1.60568359 15.60933594 1.64886719 16.34179688 1.69335938 C19.23284616 1.86470096 22.10324975 2 25 2 C23.84214963 10.08767123 23.84214963 10.08767123 20.75 13.4375 C17.88796159 15.06365819 15.16649443 16.11632714 12 17 C12 17.99 12 18.98 12 20 C13.32 20.66 14.64 21.32 16 22 C9.02639144 22.51444653 3.84141365 22.04836582 -2 18 C-4.7202118 15.53480806 -4.95646047 14.29389185 -5.5 10.625 C-4.84638999 5.88632746 -3.25061125 4.41314182 0 1 C0 0.67 0 0.34 0 0 Z " fill="#A03530" transform="translate(408,156)"/>
<path d="M0 0 C2.97 0 5.94 0 9 0 C9.33 1.65 9.66 3.3 10 5 C10.53625 4.175 11.0725 3.35 11.625 2.5 C14 0 14 0 17.25 -0.3125 C18.61125 -0.1578125 18.61125 -0.1578125 20 0 C20.125 5.75 20.125 5.75 19 8 C18.05125 8.28875 17.1025 8.5775 16.125 8.875 C12.60614464 10.14178793 11.84993921 10.84141885 10 14 C9.49967042 16.69964156 9.49967042 16.69964156 9.48828125 19.640625 C9.45283203 20.71054688 9.41738281 21.78046875 9.38085938 22.8828125 C9.34702148 24.54957031 9.34702148 24.54957031 9.3125 26.25 C9.27833984 27.37664062 9.24417969 28.50328125 9.20898438 29.6640625 C9.12656986 32.44260901 9.05739702 35.22084252 9 38 C6.03 38 3.06 38 0 38 C0 25.46 0 12.92 0 0 Z " fill="#A22A25" transform="translate(407,59)"/>
<path d="M0 0 C3.03146783 1.3025382 3.86587765 2.28908783 6 5 C6.1875 8.625 6.1875 8.625 5 12 C2.5625 13.625 2.5625 13.625 0 15 C-2.02342966 18.27602898 -2.02647586 20.89263481 -1.875 24.625 C-1.79978373 28.72770587 -1.79978373 28.72770587 -3.5625 31.125 C-6.95585133 32.34312612 -9.52449066 31.7352039 -13 31 C-13.33 27.7 -13.66 24.4 -14 21 C-17.11785113 21.64644661 -17.11785113 21.64644661 -18 24 C-18.66 24 -19.32 24 -20 24 C-20.33 26.64 -20.66 29.28 -21 32 C-21.33 32 -21.66 32 -22 32 C-22.48010437 24.91846053 -22.48010437 24.91846053 -20.5625 21.25 C-15.57127186 16.86745822 -9.58974544 14.67587133 -3 14 C-2.957279 12.33388095 -2.95936168 10.66617115 -3 9 C-3.33 8.67 -3.66 8.34 -4 8 C-8.57071175 8.34495938 -11.58325171 8.85659158 -15 12 C-16.9375 11.1875 -16.9375 11.1875 -19 10 C-19.33 9.01 -19.66 8.02 -20 7 C-18.70982586 6.01886757 -17.41780894 5.04015801 -16.125 4.0625 C-15.04605469 3.24458984 -15.04605469 3.24458984 -13.9453125 2.41015625 C-9.57670242 -0.75664744 -5.25131561 -0.69750299 0 0 Z " fill="#9F302A" transform="translate(348,122)"/>
<path d="M0 0 C0 0.99 0 1.98 0 3 C1.82724609 3.16435547 1.82724609 3.16435547 3.69140625 3.33203125 C5.31516288 3.49159115 6.9388577 3.65178093 8.5625 3.8125 C9.36236328 3.88275391 10.16222656 3.95300781 10.98632812 4.02539062 C16.92213526 4.63108523 22.36360314 5.61873832 26.9375 9.75 C28.50004225 13.05891299 28.43689955 15.37997512 28 19 C25.08329099 24.7212369 21.07866678 27.97377774 15 30 C12.93854893 30.068991 10.87498599 30.08467727 8.8125 30.0625 C7.18248047 30.04896484 7.18248047 30.04896484 5.51953125 30.03515625 C4.68808594 30.02355469 3.85664063 30.01195312 3 30 C3 29.67 3 29.34 3 29 C4.65 29 6.3 29 8 29 C8 28.01 8 27.02 8 26 C6.68 25.67 5.36 25.34 4 25 C4.67546875 24.89042969 5.3509375 24.78085938 6.046875 24.66796875 C6.93890625 24.50941406 7.8309375 24.35085937 8.75 24.1875 C9.63171875 24.03667969 10.5134375 23.88585937 11.421875 23.73046875 C14.291889 22.91729812 15.8733534 22.08867077 18 20 C18.90043828 17.74842467 18.90043828 17.74842467 19.25 15.3125 C19.39953125 14.50425781 19.5490625 13.69601563 19.703125 12.86328125 C19.80109375 12.24839844 19.8990625 11.63351563 20 11 C19.01 11.33 18.02 11.66 17 12 C15.00708008 12.02172852 15.00708008 12.02172852 12.76953125 11.87890625 C11.96708984 11.83056641 11.16464844 11.78222656 10.33789062 11.73242188 C9.08782227 11.64831055 9.08782227 11.64831055 7.8125 11.5625 C6.96751953 11.51029297 6.12253906 11.45808594 5.25195312 11.40429688 C3.16763701 11.27476311 1.08376818 11.13806823 -1 11 C-1 10.34 -1 9.68 -1 9 C-2.134375 8.855625 -3.26875 8.71125 -4.4375 8.5625 C-8 8 -8 8 -9 7 C-9.04063832 5.33382885 -9.042721 3.66611905 -9 2 C-2.25 0 -2.25 0 0 0 Z " fill="#9F2F29" transform="translate(412,147)"/>
<path d="M0 0 C3.53274314 3.53274314 5.14923693 6.31260942 5.25 11.25 C5.20191625 15.51571578 4.38484197 18.37857331 2 22 C-1.49124017 24.32749345 -2.89222251 24.50299316 -7 24 C-9.30275556 22.1329009 -10.67823871 20.64352259 -12 18 C-13.07638267 6.7287358 -13.07638267 6.7287358 -9.9375 1.6875 C-6.22517402 -0.4451128 -4.21313687 -0.76602489 0 0 Z " fill="#FCF5F3" transform="translate(386,66)"/>
<path d="M0 0 C2.97 0 5.94 0 9 0 C9 12.21 9 24.42 9 37 C6.03 37 3.06 37 0 37 C0 24.79 0 12.58 0 0 Z " fill="#A32A26" transform="translate(288,60)"/>
<path d="M0 0 C0.66 0.66 1.32 1.32 2 2 C4.37415307 2.06675492 6.75169139 2.02950699 9.125 1.9375 C15.15719494 1.78174247 19.49344032 2.5644063 25 5 C25.99 4.67 26.98 4.34 28 4 C30.33299825 3.96045766 32.66708189 3.95598268 35 4 C35 6.31 35 8.62 35 11 C30.25 10.125 30.25 10.125 28 9 C26.1136088 8.915085 24.22421485 8.892807 22.3359375 8.90234375 C20.65371094 8.90717773 20.65371094 8.90717773 18.9375 8.91210938 C17.1740625 8.92467773 17.1740625 8.92467773 15.375 8.9375 C14.19164062 8.94201172 13.00828125 8.94652344 11.7890625 8.95117188 C8.85932493 8.96298533 5.92968728 8.97945742 3 9 C2.67 9.66 2.34 10.32 2 11 C1.01 11 0.02 11 -1 11 C-1 12.32 -1 13.64 -1 15 C-4 14 -4 14 -5.3125 11.4375 C-5.869375 10.633125 -6.42625 9.82875 -7 9 C-10.12635209 8.58253392 -10.12635209 8.58253392 -13 9 C-11.75587233 5.55472339 -10.45185936 2.74608248 -8 0 C-4.67679974 -1.10773342 -3.30835256 -0.93312508 0 0 Z " fill="#1D1C1C" transform="translate(155,196)"/>
<path d="M0 0 C0.680625 -0.01675781 1.36125 -0.03351563 2.0625 -0.05078125 C4.6150481 0.42782152 5.387133 1.30198224 7 3.3125 C7.34057617 5.30541992 7.34057617 5.30541992 7.29296875 7.54296875 C7.28330078 8.34541016 7.27363281 9.14785156 7.26367188 9.97460938 C7.23853516 10.80798828 7.21339844 11.64136719 7.1875 12.5 C7.16719727 13.7674707 7.16719727 13.7674707 7.14648438 15.06054688 C7.11115799 17.14480384 7.05735139 19.22873277 7 21.3125 C8.32 21.3125 9.64 21.3125 11 21.3125 C11 21.9725 11 22.6325 11 23.3125 C8.1875 23.9375 8.1875 23.9375 5 24.3125 C4.01 23.6525 3.02 22.9925 2 22.3125 C1.01 22.9725 0.02 23.6325 -1 24.3125 C-7.45283019 23.85966981 -7.45283019 23.85966981 -10 21.3125 C-10.41756644 17.55440201 -10.54592949 15.21447046 -8.5625 11.9375 C-4.87920157 9.60174977 -1.29081462 9.49586815 3 9.3125 C2.67 7.6625 2.34 6.0125 2 4.3125 C0.3603125 4.56 0.3603125 4.56 -1.3125 4.8125 C-5 5.3125 -5 5.3125 -8 5.3125 C-6.54874132 0.95872397 -4.33815431 0.0246486 0 0 Z " fill="#1A1819" transform="translate(283,184.6875)"/>
<path d="M0 0 C0.78503906 -0.01675781 1.57007813 -0.03351563 2.37890625 -0.05078125 C3.39791016 0.12904297 3.39791016 0.12904297 4.4375 0.3125 C6.50473714 3.41335571 6.68247423 4.04181681 6.6328125 7.54296875 C6.62636719 8.34541016 6.61992187 9.14785156 6.61328125 9.97460938 C6.59652344 10.80798828 6.57976562 11.64136719 6.5625 12.5 C6.55347656 13.34498047 6.54445313 14.18996094 6.53515625 15.06054688 C6.51160703 17.14465243 6.47573647 19.22861217 6.4375 21.3125 C7.7575 21.3125 9.0775 21.3125 10.4375 21.3125 C10.4375 21.9725 10.4375 22.6325 10.4375 23.3125 C8.4575 23.6425 6.4775 23.9725 4.4375 24.3125 C4.1075 23.3225 3.7775 22.3325 3.4375 21.3125 C2.756875 21.828125 2.07625 22.34375 1.375 22.875 C-2.42292106 24.73355712 -4.52384968 24.37931329 -8.5625 23.3125 C-10.89293558 19.81684664 -11.15013244 18.4259271 -10.5625 14.3125 C-7.33317724 11.16815942 -4.97101096 9.34067022 -0.4375 9.25 C0.985625 9.2809375 0.985625 9.2809375 2.4375 9.3125 C2.1075 7.6625 1.7775 6.0125 1.4375 4.3125 C-0.2021875 4.56 -0.2021875 4.56 -1.875 4.8125 C-5.5625 5.3125 -5.5625 5.3125 -8.5625 5.3125 C-7.01086138 0.65758413 -4.55437848 0.02250928 0 0 Z " fill="#2C2B2C" transform="translate(356.5625,184.6875)"/>
<path d="M0 0 C1.17755859 -0.00773438 1.17755859 -0.00773438 2.37890625 -0.015625 C4.4375 0.25 4.4375 0.25 6.4375 2.25 C6.66455078 4.12939453 6.66455078 4.12939453 6.6328125 6.3828125 C6.62636719 7.18847656 6.61992187 7.99414062 6.61328125 8.82421875 C6.59652344 9.66597656 6.57976562 10.50773438 6.5625 11.375 C6.55347656 12.22449219 6.54445313 13.07398438 6.53515625 13.94921875 C6.51155647 16.04959884 6.47568483 18.14983444 6.4375 20.25 C7.7575 20.25 9.0775 20.25 10.4375 20.25 C10.1075 21.24 9.7775 22.23 9.4375 23.25 C7.0625 23.375 7.0625 23.375 4.4375 23.25 C3.7775 22.59 3.1175 21.93 2.4375 21.25 C1.7775 21.91 1.1175 22.57 0.4375 23.25 C-2.49438861 23.52922749 -4.71640647 23.72143881 -7.5625 23.25 C-10.00953913 21.18531073 -10.44078805 19.85855973 -11.0625 16.75 C-10.5625 14.25 -10.5625 14.25 -8.1875 12 C-4.28393892 9.39762595 -2.24833646 9.14813399 2.4375 9.25 C2.4375 7.27 2.4375 5.29 2.4375 3.25 C-0.8625 3.91 -4.1625 4.57 -7.5625 5.25 C-7.5625 4.26 -7.5625 3.27 -7.5625 2.25 C-4.42838698 0.16059132 -3.58799528 -0.02364412 0 0 Z " fill="#1F1F1F" transform="translate(343.5625,228.75)"/>
<path d="M0 0 C2.69990662 1.79993774 4.5418865 3.083773 6 6 C6 7.98 6 9.96 6 12 C1.05 12 -3.9 12 -9 12 C-7.79321679 18.36866419 -7.79321679 18.36866419 -6 20 C-2.05163095 20.2632246 0.60379269 20.08997373 4 18 C4 19.32 4 20.64 4 22 C0.85677724 24.09548184 -2.26908812 24.55925201 -6.02734375 24.42578125 C-8.84209899 23.81824002 -10.51622289 22.38025565 -12.1484375 20.04296875 C-13.92730338 15.77532263 -13.85277745 11.49040628 -13 7 C-9.99842818 1.32791208 -6.29342826 -0.61700277 0 0 Z " fill="#262526" transform="translate(393,272)"/>
<path d="M0 0 C2.8125 2.0625 2.8125 2.0625 5 5 C5.33 7.31 5.66 9.62 6 12 C1.05 12 -3.9 12 -9 12 C-8.34 14.64 -7.68 17.28 -7 20 C-5.7625 20 -4.525 20 -3.25 20 C-0.5 20 2.25 20 5 20 C3.24207518 22.44580845 1.8966364 23.84370558 -1.12890625 24.37109375 C-4.73496874 24.47208726 -7.27413864 24.38107721 -10.5 22.6875 C-13.76622596 19.01299579 -13.38407085 14.39962333 -13.359375 9.73828125 C-12.79931339 5.47085526 -11.14910247 3.84918795 -8 1 C-5.11138291 -0.44430855 -3.20352299 -0.37688506 0 0 Z " fill="#3F3E3E" transform="translate(283,228)"/>
<path d="M0 0 C2.8125 2.0625 2.8125 2.0625 5 5 C5.33 7.31 5.66 9.62 6 12 C1.05 12 -3.9 12 -9 12 C-8.34 14.64 -7.68 17.28 -7 20 C-2.58937864 21.0257259 -0.07369424 21.03684712 4 19 C4 19.99 4 20.98 4 22 C-0.02702645 24.6846843 -3.2713959 24.5643542 -8 24 C-11.28931514 22.27310955 -11.8140267 21.5579199 -13 18 C-13.99736112 8.9240138 -13.99736112 8.9240138 -11.953125 4.98046875 C-8.31985689 0.58848877 -5.63180814 -0.66256566 0 0 Z " fill="#393939" transform="translate(324,228)"/>
<path d="M0 0 C1.06927734 0.48339844 1.06927734 0.48339844 2.16015625 0.9765625 C1.83015625 1.9665625 1.50015625 2.9565625 1.16015625 3.9765625 C0.59039062 3.81929687 0.020625 3.66203125 -0.56640625 3.5 C-4.92991764 2.49534274 -9.67865349 1.77490485 -13.72265625 4.0234375 C-16.65211317 6.42927168 -18.65846188 8.32331135 -19.078125 12.1484375 C-19.25068955 18.14278513 -18.8205998 21.41040115 -14.83984375 25.9765625 C-10.24441084 28.27427895 -3.66736721 27.22237501 1.16015625 25.9765625 C1.49015625 26.9665625 1.82015625 27.9565625 2.16015625 28.9765625 C-2.79264715 31.4529642 -7.22623537 33.09928418 -12.83984375 31.9765625 C-17.90759152 29.89961669 -21.80268423 26.90427792 -24.2109375 21.92578125 C-25.68272353 17.36415872 -25.77200317 13.22167838 -23.921875 8.765625 C-18.58366623 -0.52873202 -10.21808056 -3.68244444 0 0 Z " fill="#242323" transform="translate(266.83984375,177.0234375)"/>
<path d="M0 0 C0.99 0 1.98 0 3 0 C3 4.62 3 9.24 3 14 C3.66 14 4.32 14 5 14 C5 13.34 5 12.68 5 12 C8.49124017 9.67250655 9.89222251 9.49700684 14 10 C16.17578125 11.3828125 16.17578125 11.3828125 18 14 C18.49496208 17.42864754 18.37580926 20.79508424 18.25 24.25 C18.23195313 25.18585938 18.21390625 26.12171875 18.1953125 27.0859375 C18.14825673 29.39167015 18.08253713 31.69530945 18 34 C16.68 34 15.36 34 14 34 C13.67 27.73 13.34 21.46 13 15 C7.53317678 14.52522888 7.53317678 14.52522888 5.16796875 15.98828125 C3.31159238 19.18571882 3.42274629 22.58087126 3.3125 26.1875 C3.27833984 26.93708984 3.24417969 27.68667969 3.20898438 28.45898438 C3.12665706 30.30546838 3.06164719 32.15270994 3 34 C2.01 34 1.02 34 0 34 C0 22.78 0 11.56 0 0 Z " fill="#1F1F1F" transform="translate(394,218)"/>
<path d="M0 0 C2.97 0 5.94 0 9 0 C8.67 1.32 8.34 2.64 8 4 C7.67 3.34 7.34 2.68 7 2 C3.97065509 1.34227572 3.97065509 1.34227572 1 1 C1.33 2.98 1.66 4.96 2 7 C2.99 7.33 3.98 7.66 5 8 C4.67 9.32 4.34 10.64 4 12 C5.32 11.67 6.64 11.34 8 11 C8 19.25 8 27.5 8 36 C5.36 36 2.72 36 0 36 C0 24.12 0 12.24 0 0 Z " fill="#9D2B26" transform="translate(366,123)"/>
<path d="M0 0 C2.84765625 1.0234375 2.84765625 1.0234375 5 2 C5.3125 4.75 5.3125 4.75 5 8 C1.45896319 11.54103681 -1.39121523 12.85103845 -6.375 13.3125 C-10.62757562 12.94589865 -12.17558331 12.16677023 -15 9 C-15.71750953 5.81106874 -15.29181863 4.51415664 -13.6875 1.6875 C-9.42213191 -0.99075438 -4.90540396 -0.5983897 0 0 Z " fill="#FCF5F2" transform="translate(426,159)"/>
<path d="M0 0 C1.70043945 1.2277832 1.70043945 1.2277832 3 3 C3.34057617 5.17651367 3.34057617 5.17651367 3.29296875 7.66796875 C3.28330078 8.56064453 3.27363281 9.45332031 3.26367188 10.37304688 C3.23853516 11.30181641 3.21339844 12.23058594 3.1875 13.1875 C3.16719727 14.59805664 3.16719727 14.59805664 3.14648438 16.03710938 C3.11113096 18.35865038 3.06178674 20.67903653 3 23 C2.01 23 1.02 23 0 23 C-0.33 17.06 -0.66 11.12 -1 5 C-3.31 5 -5.62 5 -8 5 C-11.02093215 8.02093215 -10.46676834 11.56372072 -10.625 15.625 C-10.66367187 16.42679687 -10.70234375 17.22859375 -10.7421875 18.0546875 C-10.83653931 20.03607556 -10.91936215 22.01800645 -11 24 C-12.32 24 -13.64 24 -15 24 C-15 16.41 -15 8.82 -15 1 C-12.525 1.495 -12.525 1.495 -10 2 C-6.30513897 -0.46324069 -4.36706908 -0.38991688 0 0 Z " fill="#2D2C2C" transform="translate(271,272)"/>
<path d="M0 0 C1.32 0 2.64 0 4 0 C4.33 6.27 4.66 12.54 5 19 C11.63333333 18.76666667 11.63333333 18.76666667 14 16 C14.3063859 13.26565038 14.5113336 10.61720179 14.625 7.875 C14.68300781 6.74384766 14.68300781 6.74384766 14.7421875 5.58984375 C14.83651031 3.72696816 14.91934662 1.86351745 15 0 C15.99 0 16.98 0 18 0 C18 7.26 18 14.52 18 22 C17.01 22 16.02 22 15 22 C14.67 21.34 14.34 20.68 14 20 C13.484375 20.495 12.96875 20.99 12.4375 21.5 C9.11203064 23.54644269 6.83693587 23.41857482 3 23 C1.3034668 21.76831055 1.3034668 21.76831055 0 20 C-0.34057617 17.82348633 -0.34057617 17.82348633 -0.29296875 15.33203125 C-0.28330078 14.43935547 -0.27363281 13.54667969 -0.26367188 12.62695312 C-0.23853516 11.69818359 -0.21339844 10.76941406 -0.1875 9.8125 C-0.17396484 8.87212891 -0.16042969 7.93175781 -0.14648438 6.96289062 C-0.11113096 4.64134962 -0.06178674 2.32096347 0 0 Z " fill="#111111" transform="translate(341,273)"/>
<path d="M0 0 C1.79792975 1.79792975 1.25670277 4.38385204 1.3125 6.8125 C1.34988281 7.87082031 1.38726562 8.92914063 1.42578125 10.01953125 C0.90512336 13.66413649 -0.09504478 14.81068156 -3 17 C-6.0688029 17 -7.45660828 16.44970349 -9.8125 14.5 C-11.62224094 10.69001907 -11.66686172 7.13757384 -11 3 C-8.08945945 -1.88970812 -5.17456281 -1.26923239 0 0 Z " fill="#F7F7F7" transform="translate(326,189)"/>
<path d="M0 0 C1.32 0 2.64 0 4 0 C4 2.97 4 5.94 4 9 C5.98 9 7.96 9 10 9 C10 9.99 10 10.98 10 12 C8.02 12 6.04 12 4 12 C4 17.61 4 23.22 4 29 C5.98 28.67 7.96 28.34 10 28 C10 28.99 10 29.98 10 31 C7.23749964 32.38125018 5.05268901 32.19079306 2 32 C0 30 0 30 -0.22705078 28.12060547 C-0.21657715 27.37697754 -0.20610352 26.63334961 -0.1953125 25.8671875 C-0.18886719 25.06152344 -0.18242187 24.25585938 -0.17578125 23.42578125 C-0.15902344 22.58402344 -0.14226562 21.74226563 -0.125 20.875 C-0.11597656 20.02550781 -0.10695313 19.17601562 -0.09765625 18.30078125 C-0.07405647 16.20040116 -0.03818483 14.10016556 0 12 C-1.32 12 -2.64 12 -4 12 C-4 11.01 -4 10.02 -4 9 C-2.68 9 -1.36 9 0 9 C0 6.03 0 3.06 0 0 Z " fill="#373637" transform="translate(327,264)"/>
<path d="M0 0 C1.32 0 2.64 0 4 0 C4 2.97 4 5.94 4 9 C5.98 9 7.96 9 10 9 C10 9.99 10 10.98 10 12 C8.02 12 6.04 12 4 12 C4 17.61 4 23.22 4 29 C5.98 28.67 7.96 28.34 10 28 C10 28.99 10 29.98 10 31 C7.23749964 32.38125018 5.05268901 32.19079306 2 32 C0 30 0 30 -0.22705078 28.12060547 C-0.21657715 27.37697754 -0.20610352 26.63334961 -0.1953125 25.8671875 C-0.18886719 25.06152344 -0.18242187 24.25585938 -0.17578125 23.42578125 C-0.15902344 22.58402344 -0.14226562 21.74226563 -0.125 20.875 C-0.11597656 20.02550781 -0.10695313 19.17601562 -0.09765625 18.30078125 C-0.07405647 16.20040116 -0.03818483 14.10016556 0 12 C-1.32 12 -2.64 12 -4 12 C-4 11.01 -4 10.02 -4 9 C-2.68 9 -1.36 9 0 9 C0 6.03 0 3.06 0 0 Z " fill="#363636" transform="translate(301,264)"/>
<path d="M0 0 C4.62 0 9.24 0 14 0 C14 0.99 14 1.98 14 3 C10.7 3 7.4 3 4 3 C4 7.29 4 11.58 4 16 C5.65 16 7.3 16 9 16 C9 16.66 9 17.32 9 18 C7.35 18 5.7 18 4 18 C4 22.62 4 27.24 4 32 C2.68 32 1.36 32 0 32 C0 21.44 0 10.88 0 0 Z " fill="#1D1C1D" transform="translate(244,220)"/>
<path d="M0 0 C1.50433594 0.01353516 1.50433594 0.01353516 3.0390625 0.02734375 C3.80992187 0.03894531 4.58078125 0.05054687 5.375 0.0625 C4.715 0.7225 4.055 1.3825 3.375 2.0625 C4.035 3.7125 4.695 5.3625 5.375 7.0625 C3.35677083 6.96484375 1.33854167 6.8671875 -0.6796875 6.76953125 C-1.64261719 6.91455078 -1.64261719 6.91455078 -2.625 7.0625 C-4.75008244 10.25012365 -5.1270163 12.32762223 -5.625 16.0625 C-7.275 16.0625 -8.925 16.0625 -10.625 16.0625 C-10.955 17.0525 -11.285 18.0425 -11.625 19.0625 C-13.96126505 16.72623495 -13.99289798 16.07296981 -14.125 12.875 C-14.04757475 8.08237689 -12.37848858 5.76179243 -9.1328125 2.375 C-6.13809932 -0.23179697 -3.87005262 -0.04500061 0 0 Z " fill="#9D302A" transform="translate(420.625,121.9375)"/>
<path d="M0 0 C0.680625 -0.00515625 1.36125 -0.0103125 2.0625 -0.015625 C4 0.25 4 0.25 7 2.25 C6.67 3.24 6.34 4.23 6 5.25 C3.03 4.92 0.06 4.59 -3 4.25 C-5.14553377 7.46830065 -5.29583868 8.51786507 -5.3125 12.25 C-5.32925781 13.11625 -5.34601563 13.9825 -5.36328125 14.875 C-5.1784037 17.29929727 -5.1784037 17.29929727 -3.66796875 19.08203125 C-1.9257599 20.57350844 -1.9257599 20.57350844 1 19.9375 C2.485 19.5971875 2.485 19.5971875 4 19.25 C4.99 19.25 5.98 19.25 7 19.25 C6 22.25 6 22.25 4.3125 23.4375 C1.25643926 24.51125107 -0.77730277 24.71038532 -4 24.25 C-8.50808773 20.56156459 -10.73561099 17.62950108 -11.375 11.875 C-10.93060645 7.57919568 -9.70408706 5.57216411 -7 2.25 C-4.00261059 0.25174039 -3.36652492 -0.02550398 0 0 Z " fill="#353535" transform="translate(379,184.75)"/>
<path d="M0 0 C0.99 0 1.98 0 3 0 C3 2.64 3 5.28 3 8 C4.98 8 6.96 8 9 8 C9 8.66 9 9.32 9 10 C7.02 10 5.04 10 3 10 C3.33 15.61 3.66 21.22 4 27 C5.65 27 7.3 27 9 27 C9.33 27.99 9.66 28.98 10 30 C6.95699684 31.52150158 4.345915 31.23899393 1 31 C-1.03120707 27.95318939 -1.24659875 27.39881676 -1.1953125 23.98828125 C-1.18886719 23.23095703 -1.18242187 22.47363281 -1.17578125 21.69335938 C-1.15902344 20.90767578 -1.14226562 20.12199219 -1.125 19.3125 C-1.11597656 18.51521484 -1.10695313 17.71792969 -1.09765625 16.89648438 C-1.07411585 14.930861 -1.03824547 12.96539225 -1 11 C-1.99 11 -2.98 11 -4 11 C-4 10.01 -4 9.02 -4 8 C-2.68 8 -1.36 8 0 8 C0 5.36 0 2.72 0 0 Z " fill="#242324" transform="translate(368,265)"/>
<path d="M0 0 C0.99 0.66 1.98 1.32 3 2 C2.67 2.99 2.34 3.98 2 5 C1.443125 4.649375 0.88625 4.29875 0.3125 3.9375 C-2.63772095 2.74146448 -4.02043802 2.93041365 -7 4 C-9.71144566 6.43095129 -9.98342424 7.84529292 -10.375 11.5 C-9.98435997 15.14597363 -9.80872754 16.65939372 -7 19 C-4.04195427 19.33340471 -4.04195427 19.33340471 -1 19 C0.32 19 1.64 19 3 19 C2.0625 21 2.0625 21 0 23 C-3.08766386 23.60817621 -5.90763971 23.5658123 -9 23 C-11.80684139 20.91286153 -13.05450926 18.91823611 -15 16 C-15.47128944 11.20855735 -15.51298393 8.9710053 -13.25 4.6875 C-8.83305009 -0.58830128 -6.95877641 -1.6448017 0 0 Z " fill="#242424" transform="translate(386,229)"/>
<path d="M0 0 C2.375 1.5 2.375 1.5 4 3 C0.92677456 3.91058531 -1.80097361 4.08886184 -5 4 C-5.33 5.32 -5.66 6.64 -6 8 C-5.36191406 8.42152344 -4.72382813 8.84304687 -4.06640625 9.27734375 C-2.82697266 10.09912109 -2.82697266 10.09912109 -1.5625 10.9375 C-0.73878906 11.48277344 0.08492188 12.02804688 0.93359375 12.58984375 C3 14 3 14 4 15 C3.75 18.4375 3.75 18.4375 3 22 C-0.157776 24.105184 -0.95397134 24.25289344 -4.5625 24.1875 C-5.34753906 24.18105469 -6.13257813 24.17460937 -6.94140625 24.16796875 C-9 24 -9 24 -11 23 C-10.505 21.515 -10.505 21.515 -10 20 C-7.03 20 -4.06 20 -1 20 C-1 18.68 -1 17.36 -1 16 C-2.71183486 14.45918397 -2.71183486 14.45918397 -4.9375 13.3125 C-5.66839844 12.89613281 -6.39929688 12.47976562 -7.15234375 12.05078125 C-7.76207031 11.70402344 -8.37179687 11.35726562 -9 11 C-10 10 -10 10 -10.3125 7.1875 C-10 4 -10 4 -8.375 1.625 C-5.30522452 -0.4753727 -3.65443439 -0.53293835 0 0 Z " fill="#131313" transform="translate(303,228)"/>
<path d="M0 0 C0 0.99 0 1.98 0 3 C-2.64 3 -5.28 3 -8 3 C-8.33 4.32 -8.66 5.64 -9 7 C-8.36191406 7.27972656 -7.72382813 7.55945313 -7.06640625 7.84765625 C-0.32473505 11.11857628 -0.32473505 11.11857628 1.3125 15.5625 C1 19 1 19 -0.4375 21.4375 C-4.23685141 23.75417769 -6.57806732 23.49132585 -11 23 C-13 21.5 -13 21.5 -14 20 C-10.52674819 18.8422494 -7.63932552 18.93133348 -4 19 C-4.03093173 16.58414426 -4.03093173 16.58414426 -5 14 C-7.9000525 12.25829702 -7.9000525 12.25829702 -11 11 C-13 9 -13 9 -13.375 5.5625 C-13 2 -13 2 -11.5625 0 C-7.64106095 -1.53031768 -4.0713729 -0.72205972 0 0 Z " fill="#212121" transform="translate(293,273)"/>
<path d="M0 0 C2.97 0 5.94 0 9 0 C9 12.21 9 24.42 9 37 C6.03 37 3.06 37 0 37 C0 24.79 0 12.58 0 0 Z M2 1 C2 12.22 2 23.44 2 35 C3.65 35 5.3 35 7 35 C7.79568202 23.64732258 8.12818318 12.37981825 8 1 C6.02 1 4.04 1 2 1 Z " fill="#993B32" transform="translate(288,60)"/>
<path d="M0 0 C7.2 -0.36 7.2 -0.36 10.5 1.125 C12 3 12 3 12.5 6 C12 9 12 9 10.5 10.875 C6.87739877 12.50517055 3.95453342 12.19772667 0 12 C0 8.04 0 4.08 0 0 Z " fill="#F4F3F4" transform="translate(248,223)"/>
<path d="M0 0 C2.97 0 5.94 0 9 0 C9 1.65 9 3.3 9 5 C8.67 4.01 8.34 3.02 8 2 C6.02 2 4.04 2 2 2 C2 13.22 2 24.44 2 36 C3.98 36 5.96 36 8 36 C8 28.41 8 20.82 8 13 C8.33 13 8.66 13 9 13 C9 21.25 9 29.5 9 38 C6.03 38 3.06 38 0 38 C0 25.46 0 12.92 0 0 Z " fill="#99423D" transform="translate(407,59)"/>
<path d="M0 0 C2.83984375 1.0234375 2.83984375 1.0234375 5 2 C4.67 2.99 4.34 3.98 4 5 C3.43023437 4.84273437 2.86046875 4.68546875 2.2734375 4.5234375 C-2.06563267 3.5244076 -6.78695626 2.83031515 -10.84765625 4.9765625 C-16.32994895 9.36778466 -17.21931132 13.23403143 -18 20 C-18.99 20 -19.98 20 -21 20 C-21.35261421 15.04381139 -21.5637327 11.17082946 -19.375 6.625 C-13.52115353 0.15495916 -8.50107408 -1.06418103 0 0 Z " fill="#242424" transform="translate(264,176)"/>
<path d="M0 0 C3.5 0.25 3.5 0.25 5.5 2.25 C5.765625 4.125 5.765625 4.125 5.75 6.25 C5.75515625 6.95125 5.7603125 7.6525 5.765625 8.375 C5.5 10.25 5.5 10.25 3.5 12.25 C-2.47716895 12.793379 -2.47716895 12.793379 -5.5 11.1875 C-7.11647822 8.05557344 -6.28665296 5.57814714 -5.5 2.25 C-3.5 0.25 -3.5 0.25 0 0 Z " fill="#FCF2F0" transform="translate(421.5,127.75)"/>
<path d="M0 0 C0 1.32 0 2.64 0 4 C-0.78375 4.28875 -1.5675 4.5775 -2.375 4.875 C-5.09671632 5.84912254 -5.09671632 5.84912254 -7 8 C-7.3063859 10.73434962 -7.5113336 13.38279821 -7.625 16.125 C-7.66367187 16.87910156 -7.70234375 17.63320312 -7.7421875 18.41015625 C-7.83651031 20.27303184 -7.91934662 22.13648255 -8 24 C-9.32 24 -10.64 24 -12 24 C-12 16.41 -12 8.82 -12 1 C-10.68 1 -9.36 1 -8 1 C-7.67 1.66 -7.34 2.32 -7 3 C-6.5875 2.505 -6.175 2.01 -5.75 1.5 C-4 0 -4 0 0 0 Z " fill="#272727" transform="translate(370,228)"/>
<path d="M0 0 C2.9375 1.1875 2.9375 1.1875 5 3 C5.33 4.65 5.66 6.3 6 8 C-0.6 8 -7.2 8 -14 8 C-9.89187491 1.15312486 -8.29219986 -1.17998166 0 0 Z " fill="#F1F1F1" transform="translate(154,128)"/>
<path d="M0 0 C6 0 6 0 8.3125 1.75 C9.96813571 3.95751428 10.81703934 5.25559016 11 8 C10.34 8.66 9.68 9.32 9 10 C8.62792646 12.71615864 8.62792646 12.71615864 8.5859375 15.8828125 C8.52792969 17.63271484 8.52792969 17.63271484 8.46875 19.41796875 C8.4378125 20.64128906 8.406875 21.86460937 8.375 23.125 C8.31699219 24.97158203 8.31699219 24.97158203 8.2578125 26.85546875 C8.1633001 29.90349376 8.07774506 32.95150862 8 36 C5.03 36 2.06 36 -1 36 C-1 35.67 -1 35.34 -1 35 C1.64 35 4.28 35 7 35 C6.67 27.08 6.34 19.16 6 11 C5.01 11 4.02 11 3 11 C3 9.68 3 8.36 3 7 C2.34 6.67 1.68 6.34 1 6 C1 8.64 1 11.28 1 14 C0.67 14 0.34 14 0 14 C0 9.38 0 4.76 0 0 Z " fill="#A13933" transform="translate(367,124)"/>
<path d="M0 0 C0.99 0 1.98 0 3 0 C3 11.22 3 22.44 3 34 C2.01 34 1.02 34 0 34 C0 33.01 0 32.02 0 31 C-0.66 30.67 -1.32 30.34 -2 30 C-1.67 29.34 -1.34 28.68 -1 28 C-0.0242216 18.68794195 0.14199672 9.35600587 0 0 Z " fill="#262425" transform="translate(328,174)"/>
<path d="M0 0 C0.61601643 8.16221766 0.61601643 8.16221766 -1.5625 11.125 C-4.95585133 12.34312612 -7.52449066 11.7352039 -11 11 C-11.3125 8.25 -11.3125 8.25 -11 5 C-7.67675404 1.58444165 -4.74073539 0 0 0 Z " fill="#F8E8E5" transform="translate(346,142)"/>
<path d="M0 0 C3.375 -0.125 3.375 -0.125 7 0 C7.66 0.66 8.32 1.32 9 2 C11.68839385 2.26991906 14.29141936 2.08737357 17 2 C16.67 2.99 16.34 3.98 16 5 C13.36 5 10.72 5 8 5 C8 5.66 8 6.32 8 7 C8.66 7.66 9.32 8.32 10 9 C9.21625 9.103125 8.4325 9.20625 7.625 9.3125 C4.66954819 9.77595022 4.66954819 9.77595022 3 13 C3 12.01 3 11.02 3 10 C2.4225 10.350625 1.845 10.70125 1.25 11.0625 C-1.35801776 12.14917407 -2.39417629 11.93065133 -5 11 C-0.25 7 -0.25 7 2 7 C1.34 4.69 0.68 2.38 0 0 Z M12 5 C12.99 5.33 13.98 5.66 15 6 C14.01 6.66 13.02 7.32 12 8 C12 7.01 12 6.02 12 5 Z " fill="#A53430" transform="translate(409,137)"/>
<path d="M0 0 C0.99 0 1.98 0 3 0 C3 10.23 3 20.46 3 31 C2.01 31 1.02 31 0 31 C0 20.77 0 10.54 0 0 Z " fill="#0C0B0B" transform="translate(245,264)"/>
<path d="M0 0 C6.8218683 -0.38614349 12.49577707 0.99134292 19 3 C19 3.99 19 4.98 19 6 C16.55854245 7.59633763 15.19619872 8.00891812 12.25 7.875 C8.24422811 6.79652295 4.42970025 5.37377821 1 3 C0.67 2.01 0.34 1.02 0 0 Z " fill="#1E1E1E" transform="translate(158,209)"/>
<path d="M0 0 C1.32 0 2.64 0 4 0 C4 7.59 4 15.18 4 23 C2.68 23 1.36 23 0 23 C0 15.41 0 7.82 0 0 Z " fill="#292828" transform="translate(315,273)"/>
<path d="M0 0 C1.65 0 3.3 0 5 0 C4 3 4 3 1 4.5625 C0.01 5.036875 -0.98 5.51125 -2 6 C-3.52106634 9.04213267 -3.37429338 12.28047572 -3.5625 15.625 C-3.60568359 16.33140625 -3.64886719 17.0378125 -3.69335938 17.765625 C-3.79944751 19.51018537 -3.90022889 21.25506697 -4 23 C-4.99 23 -5.98 23 -7 23 C-7 15.74 -7 8.48 -7 1 C-6.01 1 -5.02 1 -4 1 C-4 1.99 -4 2.98 -4 4 C-3.34 4 -2.68 4 -2 4 C-1.34 2.68 -0.68 1.36 0 0 Z " fill="#0C0C0C" transform="translate(305,185)"/>
<path d="M0 0 C1.32 0 2.64 0 4 0 C4 7.59 4 15.18 4 23 C2.68 23 1.36 23 0 23 C0 15.41 0 7.82 0 0 Z " fill="#2E2E2E" transform="translate(337,185)"/>
<path d="M0 0 C1.32 0 2.64 0 4 0 C4.01981934 0.56509277 4.03963867 1.13018555 4.06005859 1.71240234 C4.15518236 4.26707997 4.26491058 6.82092541 4.375 9.375 C4.4059375 10.26445312 4.436875 11.15390625 4.46875 12.0703125 C4.50742187 12.92109375 4.54609375 13.771875 4.5859375 14.6484375 C4.6173584 15.43395996 4.6487793 16.21948242 4.68115234 17.02880859 C4.8399465 19.23002939 4.8399465 19.23002939 7 21 C4.625 21.625 4.625 21.625 2 22 C0 20 0 20 -0.22705078 17.93701172 C-0.21657715 17.10959473 -0.20610352 16.28217773 -0.1953125 15.4296875 C-0.18886719 14.53378906 -0.18242187 13.63789063 -0.17578125 12.71484375 C-0.15902344 11.77769531 -0.14226562 10.84054687 -0.125 9.875 C-0.11597656 8.93011719 -0.10695313 7.98523438 -0.09765625 7.01171875 C-0.07404522 4.67422708 -0.04111516 2.33723877 0 0 Z " fill="#242424" transform="translate(341,273)"/>
<path d="M0 0 C4.0299485 0.85743585 5.50679333 2.33639686 7.9375 5.625 C7.9375 7.605 7.9375 9.585 7.9375 11.625 C3.3175 11.625 -1.3025 11.625 -6.0625 11.625 C-6.0625 11.295 -6.0625 10.965 -6.0625 10.625 C-2.4325 10.625 1.1975 10.625 4.9375 10.625 C3.59573008 5.58889632 3.59573008 5.58889632 0.5625 4.5625 C-2.19885754 4.35705802 -2.19885754 4.35705802 -4.25 6.4375 C-4.848125 7.159375 -5.44625 7.88125 -6.0625 8.625 C-6.7225 9.285 -7.3825 9.945 -8.0625 10.625 C-8.3925 8.975 -8.7225 7.325 -9.0625 5.625 C-4.01704545 0.81980519 -4.01704545 0.81980519 0 0 Z " fill="#3B393A" transform="translate(280.0625,227.375)"/>
<path d="M0 0 C0.79664063 0.00644531 1.59328125 0.01289063 2.4140625 0.01953125 C4.375 0.1875 4.375 0.1875 5.375 1.1875 C5.46151611 2.60320123 5.48204904 4.023095 5.47265625 5.44140625 C5.46943359 6.29541016 5.46621094 7.14941406 5.46289062 8.02929688 C5.45451172 8.92712891 5.44613281 9.82496094 5.4375 10.75 C5.43298828 11.65169922 5.42847656 12.55339844 5.42382812 13.48242188 C5.41200225 15.71751314 5.3955222 17.95247437 5.375 20.1875 C3.375 18.1875 3.375 18.1875 3.25 14.5625 C3.29125 13.44875 3.3325 12.335 3.375 11.1875 C1.395 11.1875 -0.585 11.1875 -2.625 11.1875 C0.375 9.1875 0.375 9.1875 2.375 9.1875 C2.045 7.5375 1.715 5.8875 1.375 4.1875 C-0.2646875 4.435 -0.2646875 4.435 -1.9375 4.6875 C-5.625 5.1875 -5.625 5.1875 -8.625 5.1875 C-7.04944828 0.46084485 -4.59878993 -0.08238874 0 0 Z " fill="#242424" transform="translate(356.625,184.8125)"/>
<path d="M0 0 C2 2 2 2 2.1953125 5.9140625 C2.18200376 7.48449351 2.15813602 9.05486221 2.125 10.625 C2.11597656 11.42679688 2.10695313 12.22859375 2.09765625 13.0546875 C2.07406223 15.03658523 2.03819065 17.01832981 2 19 C0.68 19.33 -0.64 19.66 -2 20 C-1.85892253 18.54119891 -1.71197585 17.08296449 -1.5625 15.625 C-1.48128906 14.81289062 -1.40007812 14.00078125 -1.31640625 13.1640625 C-1 11 -1 11 0 9 C-0.89363605 6.39068734 -0.89363605 6.39068734 -2 4 C-3.6396875 4.2475 -3.6396875 4.2475 -5.3125 4.5 C-9 5 -9 5 -12 5 C-9.94192831 -1.17421506 -5.52734395 -0.35094247 0 0 Z " fill="#0E0E0E" transform="translate(287,185)"/>
<path d="M0 0 C0.99 0.66 1.98 1.32 3 2 C2.62834479 4.35877171 2.3905936 5.65328129 0.57421875 7.265625 C-5.57340935 10.47308314 -11.1701733 10.4097896 -18 10 C-18 9.67 -18 9.34 -18 9 C-16.35 9 -14.7 9 -13 9 C-13 8.01 -13 7.02 -13 6 C-14.32 5.67 -15.64 5.34 -17 5 C-16.26394531 5.02320313 -15.52789062 5.04640625 -14.76953125 5.0703125 C-13.30580078 5.09738281 -13.30580078 5.09738281 -11.8125 5.125 C-10.36810547 5.15980469 -10.36810547 5.15980469 -8.89453125 5.1953125 C-5.8147892 4.98750265 -3.7170259 4.45744551 -1 3 C-0.67 2.01 -0.34 1.02 0 0 Z " fill="#9D2D29" transform="translate(433,167)"/>
<path d="M0 0 C0.33 5.61 0.66 11.22 1 17 C2.98 17 4.96 17 7 17 C7 17.99 7 18.98 7 20 C4.23749964 21.38125018 2.05268901 21.19079306 -1 21 C-3 19 -3 19 -3.22705078 17.12060547 C-3.21657715 16.37697754 -3.20610352 15.63334961 -3.1953125 14.8671875 C-3.18886719 14.06152344 -3.18242187 13.25585938 -3.17578125 12.42578125 C-3.15064453 11.16314453 -3.15064453 11.16314453 -3.125 9.875 C-3.11597656 9.02550781 -3.10695313 8.17601562 -3.09765625 7.30078125 C-3.07405647 5.20040116 -3.03818483 3.10016556 -3 1 C-1 0 -1 0 0 0 Z " fill="#181818" transform="translate(304,275)"/>
<path d="M0 0 C0.99 0 1.98 0 3 0 C3.309375 1.134375 3.61875 2.26875 3.9375 3.4375 C4.62924531 6.78775099 4.62924531 6.78775099 6 8 C9.94836905 8.2632246 12.60379269 8.08997373 16 6 C16 7.32 16 8.64 16 10 C12.85524043 12.09650638 9.72998816 12.5405184 5.97265625 12.44921875 C3.56998 11.90207465 2.64073897 11.13086883 1 9.3125 C-0.96895709 6.05141482 -1.63318384 4.69357238 -1 1 C-0.67 0.67 -0.34 0.34 0 0 Z " fill="#222021" transform="translate(381,284)"/>
<path d="M0 0 C0.66 0.33 1.32 0.66 2 1 C1.67 1.66 1.34 2.32 1 3 C0.77695556 5.00739994 0.55566176 7.01533957 0.37890625 9.02734375 C0 11 0 11 -2 14 C-4.625 14.1875 -4.625 14.1875 -7 14 C-7.125 7.25 -7.125 7.25 -6 5 C-5.34 5 -4.68 5 -4 5 C-3.71125 4.360625 -3.4225 3.72125 -3.125 3.0625 C-2 1 -2 1 0 0 Z " fill="#A02925" transform="translate(334,141)"/>
<path d="M0 0 C0 0.99 0 1.98 0 3 C-2.64 3 -5.28 3 -8 3 C-8.86358623 4.78141747 -8.86358623 4.78141747 -9 7 C-7.14567913 9.27144074 -7.14567913 9.27144074 -5 11 C-7.3125 11.6875 -7.3125 11.6875 -10 12 C-11.8125 11 -11.8125 11 -13 9 C-13.74537037 3.03703704 -13.74537037 3.03703704 -11.5625 0 C-7.64106095 -1.53031768 -4.0713729 -0.72205972 0 0 Z " fill="#1B191A" transform="translate(293,273)"/>
<path d="M0 0 C0.48492623 6.42527261 0.48492623 6.42527261 -1.6875 9 C-4.55639535 10.2406034 -6.05641676 9.89942821 -9 9 C-9.33 7.35 -9.66 5.7 -10 4 C-6.74659338 1.32755885 -4.23938937 0 0 0 Z " fill="#EBEAEB" transform="translate(286,196)"/>
<path d="M0 0 C0.33 0 0.66 0 1 0 C1.33 5.61 1.66 11.22 2 17 C3.98 17 5.96 17 8 17 C8 17.99 8 18.98 8 20 C5.23749964 21.38125018 3.05268901 21.19079306 0 21 C-2 19 -2 19 -2.23046875 16.64453125 C-2.00840336 2.00840336 -2.00840336 2.00840336 0 0 Z " fill="#100F10" transform="translate(329,275)"/>
<path d="M0 0 C-0.66 1.65 -1.32 3.3 -2 5 C-3.32 4.67 -4.64 4.34 -6 4 C-4.80100302 7.0831351 -3.52299523 10.06279492 -2 13 C-3.32 13.33 -4.64 13.66 -6 14 C-8 11 -8 11 -8 7 C-9.65 7.33 -11.3 7.66 -13 8 C-12.7734375 6.140625 -12.7734375 6.140625 -12 4 C-10.0390625 2.734375 -10.0390625 2.734375 -7.625 1.75 C-6.83351562 1.41484375 -6.04203125 1.0796875 -5.2265625 0.734375 C-3 0 -3 0 0 0 Z " fill="#262525" transform="translate(194,137)"/>
<path d="M0 0 C0.36272727 6.40818182 0.36272727 6.40818182 -1.1875 8.9375 C-3.58756334 10.34443368 -5.26468791 10.28792759 -8 10 C-9 9 -9 9 -9.0625 5.9375 C-9.041875 4.968125 -9.02125 3.99875 -9 3 C-2.25 0 -2.25 0 0 0 Z " fill="#F0EFEF" transform="translate(359,196)"/>
<path d="M0 0 C2 2 2 2 2 6 C-0.40545638 7.20272819 -1.94996953 7.10071472 -4.625 7.0625 C-5.85089844 7.04896484 -5.85089844 7.04896484 -7.1015625 7.03515625 C-8.04128906 7.01775391 -8.04128906 7.01775391 -9 7 C-8 4 -8 4 -7 3 C-7.83333333 0.83333333 -7.83333333 0.83333333 -10 0 C-6.25976024 -1.24674659 -3.83399823 -0.76679965 0 0 Z " fill="#201F20" transform="translate(178,176)"/>
<path d="M0 0 C0.99 0.66 1.98 1.32 3 2 C3.34057617 4.06298828 3.34057617 4.06298828 3.29296875 6.5703125 C3.28330078 7.46621094 3.27363281 8.36210937 3.26367188 9.28515625 C3.23853516 10.22230469 3.21339844 11.15945313 3.1875 12.125 C3.17396484 13.06988281 3.16042969 14.01476562 3.14648438 14.98828125 C3.11106306 17.32608779 3.06167271 19.66276237 3 22 C2.01 22 1.02 22 0 22 C-0.06058594 20.73542969 -0.12117188 19.47085937 -0.18359375 18.16796875 C-0.26800904 16.50780129 -0.35265655 14.84764563 -0.4375 13.1875 C-0.47681641 12.35412109 -0.51613281 11.52074219 -0.55664062 10.66210938 C-0.59853516 9.85966797 -0.64042969 9.05722656 -0.68359375 8.23046875 C-0.73858032 7.12288208 -0.73858032 7.12288208 -0.79467773 5.99291992 C-0.94842141 3.792505 -0.94842141 3.792505 -2 1 C-1.34 0.67 -0.68 0.34 0 0 Z " fill="#100F0F" transform="translate(271,273)"/>
<path d="M0 0 C0.36075949 5.41139241 0.36075949 5.41139241 -1.1875 7.9375 C-3 9 -3 9 -5.625 8.75 C-8 8 -8 8 -9 7 C-9.25 4.5625 -9.25 4.5625 -9 2 C-5.5647952 -0.29013653 -4.014669 -0.17842973 0 0 Z " fill="#F1F1F1" transform="translate(346,241)"/>
<path d="M0 0 C1.21236328 0.02707031 1.21236328 0.02707031 2.44921875 0.0546875 C3.37154297 0.08949219 3.37154297 0.08949219 4.3125 0.125 C4.3125 3.54275006 4.06267896 6.90381173 3.8125 10.3125 C3.7196875 11.58480469 3.626875 12.85710937 3.53125 14.16796875 C3.4590625 15.14378906 3.386875 16.11960938 3.3125 17.125 C2.9825 17.125 2.6525 17.125 2.3125 17.125 C2.3125 15.475 2.3125 13.825 2.3125 12.125 C1.69375 12.00125 1.075 11.8775 0.4375 11.75 C-1.6875 11.125 -1.6875 11.125 -3.6875 9.125 C-1.7075 9.125 0.2725 9.125 2.3125 9.125 C2.3125 7.145 2.3125 5.165 2.3125 3.125 C-0.9875 3.785 -4.2875 4.445 -7.6875 5.125 C-7.6875 4.135 -7.6875 3.145 -7.6875 2.125 C-4.48369983 -0.01086678 -3.66810033 -0.10632175 0 0 Z " fill="#595959" transform="translate(343.6875,228.875)"/>
<path d="M0 0 C0.66 0.33 1.32 0.66 2 1 C1.34 3.31 0.68 5.62 0 8 C3.63 8 7.26 8 11 8 C11 8.33 11 8.66 11 9 C7.04 9 3.08 9 -1 9 C-1 10.98 -1 12.96 -1 15 C-1.66 15.66 -2.32 16.32 -3 17 C-4.71689489 15.28310511 -4.25303054 13.09121863 -4.3125 10.75 C-4.29681446 6.72927229 -4.19061827 5.30379787 -2 1.8125 C-1.34 1.214375 -0.68 0.61625 0 0 Z " fill="#141414" transform="translate(315,230)"/>
<path d="M0 0 C2.64 0 5.28 0 8 0 C8 2.64 8 5.28 8 8 C5.36 8 2.72 8 0 8 C0 5.36 0 2.72 0 0 Z " fill="#962622" transform="translate(289,46)"/>
<path d="M0 0 C0.33 0 0.66 0 1 0 C1.94512916 9.56761524 1.94512916 18.43238476 1 28 C0.67 28 0.34 28 0 28 C-0.33 24.04 -0.66 20.08 -1 16 C-5.61507774 14.95785309 -5.61507774 14.95785309 -10 16 C-10 14.35 -10 12.7 -10 11 C-3.84765625 10.90234375 -3.84765625 10.90234375 -2 11 C-1.67 11.33 -1.34 11.66 -1 12 C-0.67 8.04 -0.34 4.08 0 0 Z " fill="#302E2F" transform="translate(327,174)"/>
<path d="M0 0 C1.32 0.33 2.64 0.66 4 1 C2 5 2 5 0.9375 6.8125 C-0.3467688 9.80912721 -0.62818874 12.77763576 -1 16 C-1.99 16 -2.98 16 -4 16 C-4.47617251 9.30713088 -4.39973696 5.22468764 0 0 Z " fill="#1F1F1F" transform="translate(247,180)"/>
<path d="M0 0 C0.99 0.66 1.98 1.32 3 2 C2.67 2.99 2.34 3.98 2 5 C1.38511719 4.88140625 0.77023437 4.7628125 0.13671875 4.640625 C-2.28541454 4.25431985 -4.54594318 3.95188124 -7 4 C-8.93211944 5.82437884 -8.93211944 5.82437884 -10 8 C-10.99 8 -11.98 8 -13 8 C-12.68762196 5.11050316 -12.35661121 3.41366901 -10.4375 1.1875 C-6.7667999 -0.60078979 -4.0747894 -0.32339598 0 0 Z " fill="#1D1C1D" transform="translate(383,185)"/>
<path d="M0 0 C1.32 0 2.64 0 4 0 C3.6875 3.375 3.6875 3.375 3 7 C-0.157776 9.105184 -0.95397134 9.25289344 -4.5625 9.1875 C-5.34753906 9.18105469 -6.13257813 9.17460937 -6.94140625 9.16796875 C-9 9 -9 9 -11 8 C-10.67 7.01 -10.34 6.02 -10 5 C-7.03 5 -4.06 5 -1 5 C-0.67 3.35 -0.34 1.7 0 0 Z " fill="#1F1F1F" transform="translate(303,243)"/>
<path d="M0 0 C2.625 0.375 2.625 0.375 5 1 C4.67 2.65 4.34 4.3 4 6 C-0.52741172 7.50913724 -5.06426798 7.77429281 -9.5 6 C-9.995 5.67 -10.49 5.34 -11 5 C-10.34 5 -9.68 5 -9 5 C-9 4.34 -9 3.68 -9 3 C-7.88625 2.87625 -6.7725 2.7525 -5.625 2.625 C-1.96896323 2.3534187 -1.96896323 2.3534187 0 0 Z M-5 3 C-4.67 3.99 -4.34 4.98 -4 6 C-3.34 5.01 -2.68 4.02 -2 3 C-2.99 3 -3.98 3 -5 3 Z " fill="#9B2A23" transform="translate(426,139)"/>
<path d="M0 0 C2 2 2 2 2 6 C-1.63 6 -5.26 6 -9 6 C-6.64191996 0.1047999 -5.98571319 -0.44892849 0 0 Z " fill="#EEEEEE" transform="translate(393,275)"/>
<path d="M0 0 C0.33 1.32 0.66 2.64 1 4 C1.66 4 2.32 4 3 4 C3 9.61 3 15.22 3 21 C2.01 21 1.02 21 0 21 C0 14.07 0 7.14 0 0 Z " fill="#111111" transform="translate(394,231)"/>
<path d="M0 0 C0.33 0 0.66 0 1 0 C1 5.94 1 11.88 1 18 C2.32 18 3.64 18 5 18 C5 18.66 5 19.32 5 20 C3.02 20.33 1.04 20.66 -1 21 C-1.33 20.01 -1.66 19.02 -2 18 C-2.99 17.67 -3.98 17.34 -5 17 C-4.34 14.03 -3.68 11.06 -3 8 C-2.67 8 -2.34 8 -2 8 C-1.67 10.31 -1.34 12.62 -1 15 C-0.67 10.05 -0.34 5.1 0 0 Z " fill="#434142" transform="translate(362,188)"/>
<path d="M0 0 C2 2 2 2 2 5 C-1.63 5 -5.26 5 -9 5 C-6.56337092 -1.0915727 -5.97057115 -1.64190707 0 0 Z " fill="#EEEEEE" transform="translate(324,232)"/>
<path d="M0 0 C2 2 2 2 2 5 C-1.63 5 -5.26 5 -9 5 C-6.56337092 -1.0915727 -5.97057115 -1.64190707 0 0 Z " fill="#EFEDEE" transform="translate(283,232)"/>
<path d="M0 0 C0 2.66666667 0 5.33333333 0 8 C-1.65 8.66 -3.3 9.32 -5 10 C-5.99 8.35 -6.98 6.7 -8 5 C-2.25 0 -2.25 0 0 0 Z " fill="#A0322F" transform="translate(336,124)"/>
<path d="M0 0 C0.20086443 3.71599191 0.1519437 4.77208445 -2 8 C-2.66613335 10.27538323 -2.66613335 10.27538323 -3.125 12.6875 C-3.29257812 13.49574219 -3.46015625 14.30398437 -3.6328125 15.13671875 C-3.75398438 15.75160156 -3.87515625 16.36648437 -4 17 C-4.66 16.67 -5.32 16.34 -6 16 C-6.8610401 6.31808242 -6.8610401 6.31808242 -3.5625 2.375 C-1 0 -1 0 0 0 Z " fill="#1B1B1B" transform="translate(317,186)"/>
<path d="M0 0 C1.2375 0.495 1.2375 0.495 2.5 1 C0.00935112 1.68707555 -1.87886292 2 -4.5 2 C-4.5 1.34 -4.5 0.68 -4.5 0 C-10.82050773 1.47478514 -14.45563875 3.27228922 -18.30859375 8.57421875 C-18.70175781 9.04472656 -19.09492188 9.51523438 -19.5 10 C-20.16 10 -20.82 10 -21.5 10 C-20.06314642 4.97101246 -17.55763331 3.04322498 -13.5 0 C-9.2617491 -2.11912545 -4.38187654 -1.25196473 0 0 Z " fill="#F5DDD8" transform="translate(272.5,117)"/>
<path d="M0 0 C1.65454759 0.90084261 3.2984402 1.82127608 4.9375 2.75 C6.31228516 3.51570312 6.31228516 3.51570312 7.71484375 4.296875 C10 6 10 6 10.81640625 8.203125 C10.87699219 8.79609375 10.93757813 9.3890625 11 10 C10.67 9.34 10.34 8.68 10 8 C9.01 8.33 8.02 8.66 7 9 C4.95703125 8.00390625 4.95703125 8.00390625 2.8125 6.5625 C2.09707031 6.08941406 1.38164062 5.61632812 0.64453125 5.12890625 C0.10183594 4.75636719 -0.44085938 4.38382813 -1 4 C-0.67 2.68 -0.34 1.36 0 0 Z " fill="#1C1C1C" transform="translate(295,235)"/>
<path d="M0 0 C0.99 0.33 1.98 0.66 3 1 C1.5625 3 1.5625 3 -1 5 C-4.76366353 5.51474617 -8.55789151 5.72105424 -12 4 C-12 3.01 -12 2.02 -12 1 C-11.07767578 1.14308594 -11.07767578 1.14308594 -10.13671875 1.2890625 C-9.32847656 1.39992187 -8.52023437 1.51078125 -7.6875 1.625 C-6.88699219 1.74101562 -6.08648437 1.85703125 -5.26171875 1.9765625 C-2.71276785 2.21533407 -2.71276785 2.21533407 0 0 Z " fill="#151515" transform="translate(326,247)"/>
<path d="M0 0 C0.33 0 0.66 0 1 0 C1 5.94 1 11.88 1 18 C2.32 18 3.64 18 5 18 C5 18.66 5 19.32 5 20 C3.02 20.33 1.04 20.66 -1 21 C-1.5625 19.0625 -1.5625 19.0625 -2 17 C-1.67 16.67 -1.34 16.34 -1 16 C-0.76321284 13.30764224 -0.57801975 10.63501844 -0.4375 7.9375 C-0.39431641 7.17888672 -0.35113281 6.42027344 -0.30664062 5.63867188 C-0.20026367 3.75934562 -0.09960066 1.87969756 0 0 Z " fill="#595959" transform="translate(289,188)"/>
<path d="M0 0 C0.33 0 0.66 0 1 0 C1 5.61 1 11.22 1 17 C-1 15 -1 15 -1.125 11.375 C-1.08375 10.26125 -1.0425 9.1475 -1 8 C-2.98 8 -4.96 8 -7 8 C-4 6 -4 6 -1 6 C-0.67 4.02 -0.34 2.04 0 0 Z " fill="#0C0B0B" transform="translate(361,188)"/>
<path d="M0 0 C3.96 0 7.92 0 12 0 C12 0.99 12 1.98 12 3 C8.68629 5.20914 7.6553979 5.22481553 3.8125 5.125 C2.91144531 5.10695312 2.01039063 5.08890625 1.08203125 5.0703125 C0.39496094 5.04710937 -0.29210937 5.02390625 -1 5 C-1 4.67 -1 4.34 -1 4 C0.65 4 2.3 4 4 4 C4 3.01 4 2.02 4 1 C2.68 0.67 1.36 0.34 0 0 Z " fill="#982821" transform="translate(416,172)"/>
<path d="M0 0 C0.99 0 1.98 0 3 0 C3 7.26 3 14.52 3 22 C2.01 22 1.02 22 0 22 C0.165 21.236875 0.33 20.47375 0.5 19.6875 C1.16562149 14.77854151 1.07920078 9.94564886 1 5 C0.67 5 0.34 5 0 5 C0 3.35 0 1.7 0 0 Z " fill="#0D0D0D" transform="translate(356,273)"/>
<path d="M0 0 C0.99 0.33 1.98 0.66 3 1 C2.0625 3 2.0625 3 0 5 C-3.04684697 5.53012905 -5.9679783 5.63862317 -9 5 C-9.66 4.01 -10.32 3.02 -11 2 C-10.28972656 1.93941406 -9.57945312 1.87882813 -8.84765625 1.81640625 C-7.46900391 1.69072266 -7.46900391 1.69072266 -6.0625 1.5625 C-5.14597656 1.48128906 -4.22945313 1.40007812 -3.28515625 1.31640625 C-1.03840268 1.23955024 -1.03840268 1.23955024 0 0 Z " fill="#292929" transform="translate(386,247)"/>
<path d="M0 0 C0 0.66 0 1.32 0 2 C-0.9075 2.226875 -1.815 2.45375 -2.75 2.6875 C-6.44888324 4.18127977 -7.77905658 5.75400577 -10 9 C-10.75 6.75 -10.75 6.75 -11 4 C-8.05685327 -0.53735121 -5.12254057 -0.39404158 0 0 Z " fill="#181617" transform="translate(282,229)"/>
<path d="M0 0 C0.99 0.66 1.98 1.32 3 2 C2.67 2.99 2.34 3.98 2 5 C1.46375 4.67 0.9275 4.34 0.375 4 C-2.5391061 2.77300796 -4.86867708 2.85766714 -8 3 C-8.33 2.01 -8.66 1.02 -9 0 C-5.88109857 -1.55945072 -3.34501482 -0.64552918 0 0 Z " fill="#2A2A2A" transform="translate(386,229)"/>
<path d="M0 0 C0 3 0 3 -1 5 C-0.34 5 0.32 5 1 5 C1 4.34 1 3.68 1 3 C1.99 3 2.98 3 4 3 C4 3.66 4 4.32 4 5 C-0.97504047 8.24900602 -3.88225104 9.49940808 -10 9 C-10 8.34 -10 7.68 -10 7 C-6.535 6.505 -6.535 6.505 -3 6 C-2.690625 5.195625 -2.38125 4.39125 -2.0625 3.5625 C-1 1 -1 1 0 0 Z " fill="#9C3B38" transform="translate(343,152)"/>
<path d="M0 0 C2.6875 0.875 2.6875 0.875 5 2 C5.33 4.31 5.66 6.62 6 9 C4.125 8.75 4.125 8.75 2 8 C0.9375 6.0625 0.9375 6.0625 0 4 C-0.99 3.34 -1.98 2.68 -3 2 C-2.01 1.34 -1.02 0.68 0 0 Z " fill="#2A2929" transform="translate(288,283)"/>
<path d="M0 0 C2.375 2 2.375 2 4 4 C3.01 4.66 2.02 5.32 1 6 C0.34 5.34 -0.32 4.68 -1 4 C-4.08347826 3.83318891 -4.08347826 3.83318891 -7 4 C-7.33 3.01 -7.66 2.02 -8 1 C-5.15916359 -0.42041821 -3.14522722 -0.31452272 0 0 Z " fill="#2E2E2E" transform="translate(324,228)"/>
<path d="M0 0 C0.33 0 0.66 0 1 0 C1 5.61 1 11.22 1 17 C0.34 17 -0.32 17 -1 17 C-1 16.01 -1 15.02 -1 14 C-1.66 13.67 -2.32 13.34 -3 13 C-2.67 12.34 -2.34 11.68 -2 11 C-1.68954474 8.40856095 -1.49026088 5.81628268 -1.28125 3.21484375 C-1 1 -1 1 0 0 Z " fill="#0F0D0E" transform="translate(329,191)"/>
<path d="M0 0 C0.33 0.66 0.66 1.32 1 2 C3.32156597 2.40729228 5.6568787 2.74438677 8 3 C8 3.33 8 3.66 8 4 C7.21625 4.103125 6.4325 4.20625 5.625 4.3125 C2.66954819 4.77595022 2.66954819 4.77595022 1 8 C1 7.01 1 6.02 1 5 C0.4225 5.350625 -0.155 5.70125 -0.75 6.0625 C-3.35801776 7.14917407 -4.39417629 6.93065133 -7 6 C-2.25 2 -2.25 2 0 2 C0 1.34 0 0.68 0 0 Z " fill="#A03E37" transform="translate(411,142)"/>
<path d="M0 0 C0.94875 0.04125 1.8975 0.0825 2.875 0.125 C2.875 2.105 2.875 4.085 2.875 6.125 C1.225 6.455 -0.425 6.785 -2.125 7.125 C-2.455 6.135 -2.785 5.145 -3.125 4.125 C-3.785 3.465 -4.445 2.805 -5.125 2.125 C-3.125 0.125 -3.125 0.125 0 0 Z " fill="#99312A" transform="translate(424.125,58.875)"/>
<path d="M0 0 C1.22589844 0.15275391 1.22589844 0.15275391 2.4765625 0.30859375 C3.41628906 0.43427734 3.41628906 0.43427734 4.375 0.5625 C4.375 1.5525 4.375 2.5425 4.375 3.5625 C0.70833333 3.5625 -2.95833333 3.5625 -6.625 3.5625 C-6.625 2.5725 -6.625 1.5825 -6.625 0.5625 C-4.10446405 -0.69776798 -2.7707902 -0.35624445 0 0 Z " fill="#282627" transform="translate(288.625,272.4375)"/>
<path d="M0 0 C1.65 0 3.3 0 5 0 C5 2.31 5 4.62 5 7 C3.35 6.67 1.7 6.34 0 6 C-1.125 2.25 -1.125 2.25 0 0 Z " fill="#181818" transform="translate(185,200)"/>
<path d="M0 0 C1.0625 1.875 1.0625 1.875 2 4 C1 6 1 6 -1.28515625 6.8515625 C-2.65994141 7.23441406 -2.65994141 7.23441406 -4.0625 7.625 C-4.98160156 7.88539063 -5.90070313 8.14578125 -6.84765625 8.4140625 C-7.55792969 8.60742188 -8.26820313 8.80078125 -9 9 C-9 7.68 -9 6.36 -9 5 C-4.545 4.505 -4.545 4.505 0 4 C0 2.68 0 1.36 0 0 Z " fill="#2F2E2E" transform="translate(286,190)"/>
<path d="M0 0 C1.65 0 3.3 0 5 0 C4 3 4 3 1.125 4.5 C-0.421875 5.2425 -0.421875 5.2425 -2 6 C-3.81554159 7.56102491 -3.81554159 7.56102491 -5 9 C-5.33 7.68 -5.66 6.36 -6 5 C-5.38125 4.9175 -4.7625 4.835 -4.125 4.75 C-1.81562433 4.18741541 -1.81562433 4.18741541 -0.75 1.9375 C-0.5025 1.298125 -0.255 0.65875 0 0 Z " fill="#161616" transform="translate(305,185)"/>
<path d="M0 0 C2.97 0.495 2.97 0.495 6 1 C6 1.99 6 2.98 6 4 C7.32 4.66 8.64 5.32 10 6 C8.39620659 6.05416188 6.79188594 6.09286638 5.1875 6.125 C4.29417969 6.14820313 3.40085937 6.17140625 2.48046875 6.1953125 C0 6 0 6 -3 4 C-2.01 4 -1.02 4 0 4 C0 2.68 0 1.36 0 0 Z " fill="#B04B45" transform="translate(414,172)"/>
<path d="M0 0 C2 0.875 2 0.875 3.25 3.4375 C3.4975 4.241875 3.745 5.04625 4 5.875 C2.02 6.865 2.02 6.865 0 7.875 C-0.99 7.215 -1.98 6.555 -3 5.875 C-2.34 5.215 -1.68 4.555 -1 3.875 C-0.67 4.205 -0.34 4.535 0 4.875 C0.33 3.885 0.66 2.895 1 1.875 C-3.455 2.37 -3.455 2.37 -8 2.875 C-2 -0.125 -2 -0.125 0 0 Z " fill="#9D3C37" transform="translate(278,150.125)"/>
<path d="M0 0 C0.66 0.33 1.32 0.66 2 1 C1.1875 2.9375 1.1875 2.9375 0 5 C-2.75078884 5.91692961 -4.35948913 6.10886083 -7.1875 6.0625 C-9.0746875 6.0315625 -9.0746875 6.0315625 -11 6 C-8.33441197 2.55041549 -5.08817247 2.05989657 -1 1 C-0.67 0.67 -0.34 0.34 0 0 Z " fill="#2F2F2F" transform="translate(396,290)"/>
<path d="M0 0 C1.32 0.99 2.64 1.98 4 3 C3.67 4.98 3.34 6.96 3 9 C-1.29 9 -5.58 9 -10 9 C-10 8.67 -10 8.34 -10 8 C-6.37 8 -2.74 8 1 8 C0.34 5.69 -0.32 3.38 -1 1 C-0.67 0.67 -0.34 0.34 0 0 Z " fill="#2E2E2E" transform="translate(394,273)"/>
<path d="M0 0 C3.3 0.33 6.6 0.66 10 1 C10 1.99 10 2.98 10 4 C7.23749964 5.38125018 5.05268901 5.19079306 2 5 C1.34 4.34 0.68 3.68 0 3 C0 2.01 0 1.02 0 0 Z " fill="#1F1F1F" transform="translate(327,291)"/>
<path d="M0 0 C1.04449911 3.13349732 0.93423645 3.98968256 0 7 C-2.475 6.01 -2.475 6.01 -5 5 C-5 4.01 -5 3.02 -5 2 C-6.65 2 -8.3 2 -10 2 C-10 1.67 -10 1.34 -10 1 C-2.25 0 -2.25 0 0 0 Z " fill="#2B2A2B" transform="translate(258,234)"/>
<path d="M0 0 C1.45880109 0.14107747 2.91703551 0.28802415 4.375 0.4375 C5.59316406 0.55931641 5.59316406 0.55931641 6.8359375 0.68359375 C9 1 9 1 11 2 C10.67 2.99 10.34 3.98 10 5 C6.7 4.34 3.4 3.68 0 3 C0 2.01 0 1.02 0 0 Z " fill="#1B1B1B" transform="translate(258,176)"/>
<path d="M0 0 C0 0.66 0 1.32 0 2 C-1.65532623 3.01866229 -3.32260138 4.01810813 -5 5 C-5.33 5.66 -5.66 6.32 -6 7 C-6.66 7 -7.32 7 -8 7 C-8.33 9.64 -8.66 12.28 -9 15 C-9.33 15 -9.66 15 -10 15 C-10.48801743 7.80174292 -10.48801743 7.80174292 -8.25 4.125 C-5.64256473 1.66242224 -3.65902132 0 0 0 Z " fill="#9D4038" transform="translate(336,139)"/>
<path d="M0 0 C2.43929746 1.92576115 4.80090595 3.80090595 7 6 C5.02 6.99 5.02 6.99 3 8 C2.34 7.34 1.68 6.68 1 6 C-1.43252661 5.53837573 -1.43252661 5.53837573 -4.125 5.375 C-5.03507813 5.30023438 -5.94515625 5.22546875 -6.8828125 5.1484375 C-7.58148438 5.09945312 -8.28015625 5.05046875 -9 5 C-9 4.67 -9 4.34 -9 4 C-6.03 4 -3.06 4 0 4 C-0.33 3.01 -0.66 2.02 -1 1 C-0.67 0.67 -0.34 0.34 0 0 Z " fill="#343434" transform="translate(206,129)"/>
<path d="M0 0 C3.16115776 1.36983503 3.9927092 1.9890638 6 5 C3 5 3 5 0 3 C-0.99 3.66 -1.98 4.32 -3 5 C-9.33333333 5.33333333 -9.33333333 5.33333333 -12 4 C-11.67 3.34 -11.34 2.68 -11 2 C-9.9275 2.226875 -8.855 2.45375 -7.75 2.6875 C-4.07021424 3.35775825 -4.07021424 3.35775825 -1.5625 1.5625 C-1.046875 1.046875 -0.53125 0.53125 0 0 Z " fill="#943832" transform="translate(329,86)"/>
<path d="M0 0 C0.556875 0.185625 1.11375 0.37125 1.6875 0.5625 C4.399133 1.07551165 6.34371039 0.6640724 9 0 C9 1.65 9 3.3 9 5 C6.03 4.67 3.06 4.34 0 4 C0 2.68 0 1.36 0 0 Z " fill="#292929" transform="translate(176,200)"/>
<path d="M0 0 C0 1.32 0 2.64 0 4 C-5.625 6.125 -5.625 6.125 -9 5 C-6.91842771 0.83685543 -4.54238924 0 0 0 Z " fill="#343434" transform="translate(370,228)"/>
<path d="M0 0 C2.46800047 1.15173355 4.04783565 2.04783565 6 4 C6.125 7.125 6.125 7.125 6 10 C3.33333333 7.33333333 0.66666667 4.66666667 -2 2 C-1.34 2 -0.68 2 0 2 C0 1.34 0 0.68 0 0 Z " fill="#2A2929" transform="translate(258,221)"/>
<path d="M0 0 C0.33 0 0.66 0 1 0 C1 2.64 1 5.28 1 8 C1.99 8 2.98 8 4 8 C4 5.69 4 3.38 4 1 C4.33 1 4.66 1 5 1 C5.33 4.3 5.66 7.6 6 11 C4.35 11 2.7 11 1 11 C-0.20272819 8.59454362 -0.10071472 7.05003047 -0.0625 4.375 C-0.05347656 3.55773437 -0.04445312 2.74046875 -0.03515625 1.8984375 C-0.02355469 1.27195313 -0.01195312 0.64546875 0 0 Z " fill="#525152" transform="translate(242,188)"/>
<path d="M0 0 C1.8871875 0.061875 1.8871875 0.061875 3.8125 0.125 C1.58424356 2.35325644 0.15488372 2.81739369 -2.8125 3.75 C-3.62976563 4.01039063 -4.44703125 4.27078125 -5.2890625 4.5390625 C-5.91554688 4.73242188 -6.54203125 4.92578125 -7.1875 5.125 C-7.1875 4.135 -7.1875 3.145 -7.1875 2.125 C-4.09861478 0.06574319 -3.47814073 -0.1140374 0 0 Z " fill="#191919" transform="translate(343.1875,228.875)"/>
<path d="M0 0 C-1.29474635 2.58949269 -2.32663393 2.96035764 -5 4 C-7.75 4.125 -7.75 4.125 -10 4 C-10.33 3.34 -10.66 2.68 -11 2 C-9.73392393 1.46770674 -8.46189588 0.94955456 -7.1875 0.4375 C-6.47980469 0.14746094 -5.77210938 -0.14257812 -5.04296875 -0.44140625 C-3 -1 -3 -1 0 0 Z " fill="#353434" transform="translate(287,205)"/>
<path d="M0 0 C0.66 0.99 1.32 1.98 2 3 C1.67 3.99 1.34 4.98 1 6 C-2 6 -5 6 -8 6 C-6.60624928 3.21249856 -4.83755139 3.10733713 -2 2 C-1.34 1.34 -0.68 0.68 0 0 Z " fill="#252424" transform="translate(326,202)"/>
<path d="M0 0 C0.66 0 1.32 0 2 0 C1.67 2.97 1.34 5.94 1 9 C0.01 9 -0.98 9 -2 9 C-2.125 5.625 -2.125 5.625 -2 2 C-1.34 1.34 -0.68 0.68 0 0 Z " fill="#0E0D0E" transform="translate(245,187)"/>
<path d="M0 0 C1.134375 0.020625 2.26875 0.04125 3.4375 0.0625 C3.7675 0.7225 4.0975 1.3825 4.4375 2.0625 C4.1075 3.0525 3.7775 4.0425 3.4375 5.0625 C0.77083333 3.72916667 -1.89583333 2.39583333 -4.5625 1.0625 C-3.5625 0.0625 -3.5625 0.0625 0 0 Z " fill="#181818" transform="translate(406.5625,228.9375)"/>
<path d="M0 0 C1.875 0.75 1.875 0.75 2.875 2.75 C0.235 3.74 -2.405 4.73 -5.125 5.75 C-5.125 4.43 -5.125 3.11 -5.125 1.75 C-2.125 -0.25 -2.125 -0.25 0 0 Z " fill="#2C2C2C" transform="translate(354.125,185.25)"/>
<path d="M0 0 C2.64 0 5.28 0 8 0 C7.67 0.99 7.34 1.98 7 3 C3.4375 4.1875 3.4375 4.1875 0 5 C0 3.35 0 1.7 0 0 Z " fill="#282727" transform="translate(317,185)"/>
<path d="M0 0 C0.66 0.66 1.32 1.32 2 2 C1.67 2.66 1.34 3.32 1 4 C-6.425 3.01 -6.425 3.01 -14 2 C-14 1.67 -14 1.34 -14 1 C-13.07316406 1.01160156 -12.14632813 1.02320313 -11.19140625 1.03515625 C-9.39509766 1.04869141 -9.39509766 1.04869141 -7.5625 1.0625 C-5.77005859 1.07990234 -5.77005859 1.07990234 -3.94140625 1.09765625 C-1.11126659 1.33901792 -1.11126659 1.33901792 0 0 Z " fill="#A3463F" transform="translate(431,157)"/>
<path d="M0 0 C2 2 2 2 2.1953125 3.9453125 C2.13020833 5.96354167 2.06510417 7.98177083 2 10 C1.01 9.67 0.02 9.34 -1 9 C-1.625 5.625 -1.625 5.625 -2 2 C-1.34 1.34 -0.68 0.68 0 0 Z " fill="#100F10" transform="translate(212,141)"/>
<path d="M0 0 C-1.1446875 0.8971875 -1.1446875 0.8971875 -2.3125 1.8125 C-5.83744468 4.68164102 -8.1298436 6.82811265 -10 11 C-9.70980098 7.22741269 -9.48342371 4.67334017 -7.25 1.5625 C-4.59267675 -0.28286337 -3.1685371 -0.35205968 0 0 Z " fill="#F7E2DE" transform="translate(325,66)"/>
<path d="M0 0 C0.66 0.33 1.32 0.66 2 1 C1 4 1 4 -1 5 C-3.3329866 5.04022391 -5.66706666 5.04320247 -8 5 C-6.35197949 1.70395897 -3.32254422 1.22409524 0 0 Z " fill="#151515" transform="translate(384,203)"/>
<path d="M0 0 C0 0.66 0 1.32 0 2 C0.66 2.33 1.32 2.66 2 3 C-0.64 3.99 -3.28 4.98 -6 6 C-6 4.68 -6 3.36 -6 2 C-3 0 -3 0 0 0 Z " fill="#2B2B2B" transform="translate(282,185)"/>
<path d="M0 0 C0.33 0.66 0.66 1.32 1 2 C1.66 2 2.32 2 3 2 C3.125 4.875 3.125 4.875 3 8 C2.34 8.66 1.68 9.32 1 10 C0 9 0 9 -0.09765625 6.93359375 C-0.08605469 6.10988281 -0.07445312 5.28617188 -0.0625 4.4375 C-0.05347656 3.61121094 -0.04445313 2.78492188 -0.03515625 1.93359375 C-0.02355469 1.29550781 -0.01195312 0.65742188 0 0 Z " fill="#0E0E0E" transform="translate(311,237)"/>
<path d="M0 0 C0.99 0 1.98 0 3 0 C3 1.32 3 2.64 3 4 C-1.62 4 -6.24 4 -11 4 C-11 3.67 -11 3.34 -11 3 C-7.37 3 -3.74 3 0 3 C0 2.01 0 1.02 0 0 Z " fill="#0B090A" transform="translate(285,235)"/>
<path d="M0 0 C3 3 3 3 3.1875 5.6875 C3.125625 6.450625 3.06375 7.21375 3 8 C1.68 8.33 0.36 8.66 -1 9 C-0.67 6.03 -0.34 3.06 0 0 Z " fill="#161415" transform="translate(286,196)"/>
<path d="M0 0 C0.53625 0.2475 1.0725 0.495 1.625 0.75 C1.625 1.41 1.625 2.07 1.625 2.75 C0.33573008 3.11279456 -0.95653272 3.46496698 -2.25 3.8125 C-3.32894531 4.10833984 -3.32894531 4.10833984 -4.4296875 4.41015625 C-6.375 4.75 -6.375 4.75 -8.375 3.75 C-2.95961538 -0.31153846 -2.95961538 -0.31153846 0 0 Z " fill="#333333" transform="translate(355.375,194.25)"/>
<path d="M0 0 C3.63 0 7.26 0 11 0 C10.67 1.32 10.34 2.64 10 4 C6.58978257 3.21302675 3.31114834 2.12880057 0 1 C0 0.67 0 0.34 0 0 Z " fill="#9C403A" transform="translate(269,116)"/>
<path d="M0 0 C2.5 1.25 2.5 1.25 5 3 C5 4.32 5 5.64 5 7 C4.01 7.33 3.02 7.66 2 8 C1.34 5.36 0.68 2.72 0 0 Z " fill="#993736" transform="translate(329,60)"/>
<path d="M0 0 C0.99 0.33 1.98 0.66 3 1 C1.71034824 2.37562854 0.37310707 3.70766393 -1 5 C-1.66 5 -2.32 5 -3 5 C-3 4.34 -3 3.68 -3 3 C-4.65 3 -6.3 3 -8 3 C-8 2.67 -8 2.34 -8 2 C-6.865625 1.855625 -5.73125 1.71125 -4.5625 1.5625 C-1.19222799 1.38828522 -1.19222799 1.38828522 0 0 Z " fill="#3B3B3B" transform="translate(285,247)"/>
<path d="M0 0 C1.65 0.33 3.3 0.66 5 1 C5 2.32 5 3.64 5 5 C2.69 4.34 0.38 3.68 -2 3 C-1.34 2.67 -0.68 2.34 0 2 C0 1.34 0 0.68 0 0 Z " fill="#282828" transform="translate(380,185)"/>
<path d="M0 0 C1 3.875 1 3.875 1 5 C-1.64 5 -4.28 5 -7 5 C-4.53846154 1.18461538 -4.53846154 1.18461538 -1.8125 0.25 C-1.214375 0.1675 -0.61625 0.085 0 0 Z " fill="#A32926" transform="translate(340,154)"/>
<path d="M0 0 C0.33 0 0.66 0 1 0 C1.33 3.3 1.66 6.6 2 10 C1.01 10 0.02 10 -1 10 C-1.33 7.69 -1.66 5.38 -2 3 C-1.34 3 -0.68 3 0 3 C0 2.01 0 1.02 0 0 Z " fill="#2A2A2A" transform="translate(183,149)"/>
<path d="M0 0 C1.98 0 3.96 0 6 0 C5.01 0.66 4.02 1.32 3 2 C2.27560748 4.38593418 2.27560748 4.38593418 1.9375 7.0625 C1.52734375 9.78515625 1.52734375 9.78515625 1 12 C0.01 12.495 0.01 12.495 -1 13 C-0.83628906 12.43796875 -0.67257812 11.8759375 -0.50390625 11.296875 C0.02864997 8.86940944 0.09898681 6.73110319 0.0625 4.25 C0.05347656 3.45078125 0.04445313 2.6515625 0.03515625 1.828125 C0.02355469 1.22484375 0.01195312 0.6215625 0 0 Z " fill="#FCE6E3" transform="translate(435,129)"/>
<path d="M0 0 C0 0.33 0 0.66 0 1 C-1.65 1.33 -3.3 1.66 -5 2 C-4.01 2.66 -3.02 3.32 -2 4 C-4.31 4.66 -6.62 5.32 -9 6 C-9 4.68 -9 3.36 -9 2 C-5.5647952 -0.29013653 -4.014669 -0.17842973 0 0 Z " fill="#474747" transform="translate(408,228)"/>
<path d="M0 0 C1.60031344 3.20062687 0.03173691 5.72271806 -1 9 C-3 7 -3 7 -3.125 3.875 C-3.08375 2.92625 -3.0425 1.9775 -3 1 C-2.01 0.67 -1.02 0.34 0 0 Z " fill="#1C1C1C" transform="translate(349,198)"/>
<path d="M0 0 C2.0625 0.4375 2.0625 0.4375 4 1 C3.34 1 2.68 1 2 1 C2 2.32 2 3.64 2 5 C0.35 5 -1.3 5 -3 5 C-1.125 1.125 -1.125 1.125 0 0 Z " fill="#9D2D27" transform="translate(412,171)"/>
<path d="M0 0 C0.33 0.66 0.66 1.32 1 2 C1.99 2.33 2.98 2.66 4 3 C4 3.66 4 4.32 4 5 C1.03 5 -1.94 5 -5 5 C-5 4.34 -5 3.68 -5 3 C-2.525 3.495 -2.525 3.495 0 4 C0 2.68 0 1.36 0 0 Z " fill="#0F0E0F" transform="translate(202,128)"/>
<path d="M0 0 C0.66 0.33 1.32 0.66 2 1 C2 1.66 2 2.32 2 3 C-0.95664519 4.4783226 -3.74229737 4.06032783 -7 4 C-4.61426621 2.10786631 -2.92824652 0.97608217 0 0 Z " fill="#1C1C1C" transform="translate(351,292)"/>
<path d="M0 0 C1.485 0.99 1.485 0.99 3 2 C4.65549531 2.38499891 6.3222433 2.72793135 8 3 C8 3.66 8 4.32 8 5 C5.69 5 3.38 5 1 5 C0.67 3.35 0.34 1.7 0 0 Z " fill="#0F0F0F" transform="translate(274,247)"/>
<path d="M0 0 C1.32 0 2.64 0 4 0 C4 1.65 4 3.3 4 5 C2.68 5 1.36 5 0 5 C0 3.35 0 1.7 0 0 Z " fill="#424242" transform="translate(337,176)"/>
<path d="M0 0 C0.99 0.33 1.98 0.66 3 1 C2.0409375 2.051875 2.0409375 2.051875 1.0625 3.125 C-1.16386102 6.22841233 -1.65080943 8.24620139 -2 12 C-2.33 12 -2.66 12 -3 12 C-3.2954439 6.97745369 -2.98514628 4.10457614 0 0 Z " fill="#EFCDC7" transform="translate(409,124)"/>
<path d="M0 0 C2.31 0 4.62 0 7 0 C7 0.66 7 1.32 7 2 C4.69 2.33 2.38 2.66 0 3 C0 2.01 0 1.02 0 0 Z " fill="#292728" transform="translate(264,272)"/>
<path d="M0 0 C5.41538462 -0.36923077 5.41538462 -0.36923077 8.375 1.5 C8.91125 1.995 9.4475 2.49 10 3 C8.375 3.6875 8.375 3.6875 6 4 C2.75 2.5625 2.75 2.5625 0 1 C0 0.67 0 0.34 0 0 Z " fill="#3D3D3D" transform="translate(297,228)"/>
<path d="M0 0 C0.99 0 1.98 0 3 0 C3 0.99 3 1.98 3 3 C4.98 3 6.96 3 9 3 C9 3.33 9 3.66 9 4 C1.25 4.125 1.25 4.125 -1 3 C-0.67 2.01 -0.34 1.02 0 0 Z " fill="#3E3D3E" transform="translate(253,205)"/>
<path d="M0 0 C1.32 0.66 2.64 1.32 4 2 C3.67 2.99 3.34 3.98 3 5 C1.68 4.67 0.36 4.34 -1 4 C-0.67 2.68 -0.34 1.36 0 0 Z " fill="#2E2C2D" transform="translate(188,146)"/>
<path d="M0 0 C2.0625 0.4375 2.0625 0.4375 4 1 C3.67 2.32 3.34 3.64 3 5 C2.01 5 1.02 5 0 5 C-0.5625 3.0625 -0.5625 3.0625 -1 1 C-0.67 0.67 -0.34 0.34 0 0 Z " fill="#121212" transform="translate(211,135)"/>
<path d="M0 0 C0.99 0.33 1.98 0.66 3 1 C2.67 3.31 2.34 5.62 2 8 C1.34 7.67 0.68 7.34 0 7 C0 4.69 0 2.38 0 0 Z " fill="#151314" transform="translate(280,275)"/>
<path d="M0 0 C6.15234375 0.5859375 6.15234375 0.5859375 8 1 C8.33 1.66 8.66 2.32 9 3 C5.625 3.1875 5.625 3.1875 2 3 C1.34 2.01 0.68 1.02 0 0 Z " fill="#0F0F0F" transform="translate(375,249)"/>
<path d="M0 0 C0.66 0.66 1.32 1.32 2 2 C1.34 4.31 0.68 6.62 0 9 C-0.33 9 -0.66 9 -1 9 C-1 7.02 -1 5.04 -1 3 C-2.65 3 -4.3 3 -6 3 C-4 2 -2 1 0 0 Z " fill="#4D4D4D" transform="translate(347,229)"/>
<path d="M0 0 C2.1875 0.3125 2.1875 0.3125 4 1 C4 1.66 4 2.32 4 3 C2.02 3.99 2.02 3.99 0 5 C-0.99 4.34 -1.98 3.68 -3 3 C-1.75 1.4375 -1.75 1.4375 0 0 Z " fill="#121011" transform="translate(168,177)"/>
<path d="M0 0 C0.268125 0.639375 0.53625 1.27875 0.8125 1.9375 C1.88667752 4.33131686 1.88667752 4.33131686 5 5 C3.02 5.99 3.02 5.99 1 7 C0.01 5.35 -0.98 3.7 -2 2 C-1.34 1.34 -0.68 0.68 0 0 Z " fill="#953D36" transform="translate(330,127)"/>
<path d="M0 0 C2 3 2 3 2 6 C0.35 6.33 -1.3 6.66 -3 7 C-1.125 2.25 -1.125 2.25 0 0 Z " fill="#9E3C36" transform="translate(244,118)"/>
<path d="M0 0 C0.99 0.33 1.98 0.66 3 1 C1.71034824 2.37562854 0.37310707 3.70766393 -1 5 C-1.66 5 -2.32 5 -3 5 C-3 4.01 -3 3.02 -3 2 C-2.01 1.34 -1.02 0.68 0 0 Z " fill="#212121" transform="translate(326,247)"/>
<path d="M0 0 C2.64 0.33 5.28 0.66 8 1 C8 1.33 8 1.66 8 2 C6.35 2 4.7 2 3 2 C3 2.66 3 3.32 3 4 C1.68 3.67 0.36 3.34 -1 3 C-0.67 2.01 -0.34 1.02 0 0 Z " fill="#505050" transform="translate(293,248)"/>
<path d="M0 0 C1.485 0.99 1.485 0.99 3 2 C2.67 4.31 2.34 6.62 2 9 C1.34 8.67 0.68 8.34 0 8 C0 5.36 0 2.72 0 0 Z " fill="#0C0C0C" transform="translate(270,238)"/>
<path d="M0 0 C1.98 0 3.96 0 6 0 C3.33333333 2 0.66666667 4 -2 6 C-1.49396008 3.83125748 -1.00016187 2.00032373 0 0 Z " fill="#161616" transform="translate(338,239)"/>
<path d="M0 0 C2.375 0.6875 2.375 0.6875 5 2 C6.3125 4.625 6.3125 4.625 7 7 C1.125 3.375 1.125 3.375 0 0 Z " fill="#993931" transform="translate(246,151)"/>
<path d="M0 0 C1.32 0 2.64 0 4 0 C3.67 1.65 3.34 3.3 3 5 C2.01 4.67 1.02 4.34 0 4 C0 2.68 0 1.36 0 0 Z " fill="#952F29" transform="translate(277,47)"/>
</svg>
