<?xml version="1.0" encoding="UTF-8"?>
<svg version="1.1" xmlns="http://www.w3.org/2000/svg" width="591" height="414">
<path d="M0 0 C12.13102567 11.1384434 22.82610286 25.2384987 24.36352539 42.15014648 C24.41296735 43.69806027 24.45232947 45.24631119 24.48461914 46.79467773 C24.75840825 58.8883665 25.88444953 68.18088523 34.30102539 77.58764648 C36.36352539 80.15014648 36.36352539 80.15014648 36.30102539 82.77514648 C35.43221526 84.97613215 34.43500887 87.04274744 33.36352539 89.15014648 C34.21237305 89.58713867 34.21237305 89.58713867 35.07836914 90.03295898 C41.09106213 93.3933041 41.09106213 93.3933041 42.48852539 97.27514648 C42.36352539 100.15014648 42.36352539 100.15014648 40.36352539 103.15014648 C40.69352539 103.48014648 41.02352539 103.81014648 41.36352539 104.15014648 C42.45859409 112.63692892 39.46350597 117.48850162 34.36352539 124.15014648 C32.76977539 125.98999023 32.76977539 125.98999023 31.36352539 127.15014648 C29.17602539 126.83764648 29.17602539 126.83764648 27.36352539 126.15014648 C27.98227539 125.07764648 28.60102539 124.00514648 29.23852539 122.90014648 C29.60204102 122.25561523 29.96555664 121.61108398 30.34008789 120.94702148 C31.07016915 119.66519943 31.83169406 118.40107662 32.61352539 117.15014648 C33.73716064 114.15378583 33.48516823 111.31286034 33.36352539 108.15014648 C30.24931131 106.30468629 27.98031223 105.68645586 24.36352539 106.15014648 C23.88915039 106.64514648 23.41477539 107.14014648 22.92602539 107.65014648 C21.36352539 109.15014648 21.36352539 109.15014648 18.42602539 109.65014648 C15.36352539 109.15014648 15.36352539 109.15014648 12.98852539 106.77514648 C11.36352539 104.15014648 11.36352539 104.15014648 11.36352539 102.15014648 C10.37352539 102.15014648 9.38352539 102.15014648 8.36352539 102.15014648 C8.63970072 104.09089509 8.63970072 104.09089509 9.36352539 106.15014648 C10.35352539 106.81014648 11.34352539 107.47014648 12.36352539 108.15014648 C12.55102539 110.77514648 12.55102539 110.77514648 12.36352539 113.15014648 C10.55102539 113.83764648 10.55102539 113.83764648 8.36352539 114.15014648 C5.41082614 112.10597008 4.61454679 109.41135611 3.36352539 106.15014648 C3.87593646 112.17915335 4.43331039 118.17019292 5.36352539 124.15014648 C3.71352539 124.48014648 2.06352539 124.81014648 0.36352539 125.15014648 C0.25395508 124.5584668 0.14438477 123.96678711 0.03149414 123.35717773 C-0.71661389 119.62880196 -1.31665268 116.67133778 -3.32397461 113.40014648 C-4.63647461 111.15014648 -4.63647461 111.15014648 -4.32397461 108.33764648 C-3.98366211 107.25483398 -3.98366211 107.25483398 -3.63647461 106.15014648 C-5.28647461 105.82014648 -6.93647461 105.49014648 -8.63647461 105.15014648 C-8.70995117 106.6312793 -8.70995117 106.6312793 -8.78491211 108.14233398 C-8.89706055 110.06432617 -8.89706055 110.06432617 -9.01147461 112.02514648 C-9.11588867 113.9394043 -9.11588867 113.9394043 -9.22241211 115.89233398 C-9.63647461 119.15014648 -9.63647461 119.15014648 -11.63647461 121.15014648 C-11.34664192 124.45698114 -11.34664192 124.45698114 -9.63647461 127.15014648 C-9.46850586 129.07592773 -9.46850586 129.07592773 -9.44897461 131.46264648 C-9.43479492 132.2425293 -9.42061523 133.02241211 -9.40600586 133.82592773 C-9.65663048 136.35341329 -10.37273689 137.96732679 -11.63647461 140.15014648 C-14.30314128 139.48347982 -16.96980794 138.81681315 -19.63647461 138.15014648 C-19.63647461 140.46014648 -19.63647461 142.77014648 -19.63647461 145.15014648 C-18.62584961 144.82014648 -17.61522461 144.49014648 -16.57397461 144.15014648 C-12.81443502 143.10203242 -9.55599869 142.71464381 -5.63647461 143.15014648 C-2.69897461 145.15014648 -2.69897461 145.15014648 -0.63647461 147.15014648 C-0.94897461 149.52514648 -0.94897461 149.52514648 -1.63647461 152.15014648 C-5.70386044 154.86173704 -8.86634603 154.56014101 -13.63647461 154.15014648 C-16.06351857 153.63732845 -18.28158827 152.95180992 -20.63647461 152.15014648 C-20.96647461 153.14014648 -21.29647461 154.13014648 -21.63647461 155.15014648 C-25.05597213 155.08175653 -27.68063007 154.86804675 -30.47241211 152.77124023 C-33.59395262 149.49582097 -33.59395262 149.49582097 -34.63647461 147.15014648 C-34.48033651 141.62025541 -32.58019321 137.9219145 -29.63647461 133.40014648 C-25.03094633 125.83204494 -23.49641894 119.24993751 -25.57397461 110.46264648 C-25.92459961 109.36952148 -26.27522461 108.27639648 -26.63647461 107.15014648 C-27.59553711 108.35670898 -27.59553711 108.35670898 -28.57397461 109.58764648 C-30.63647461 112.15014648 -30.63647461 112.15014648 -31.63647461 113.15014648 C-33.78494013 113.08440762 -35.93129051 112.94582315 -38.07397461 112.77514648 C-39.96696289 112.62819336 -39.96696289 112.62819336 -41.89819336 112.47827148 C-45.85636968 112.13084535 -49.80203216 111.71926692 -53.74584961 111.23608398 C-55.72663946 110.99215968 -55.72663946 110.99215968 -57.63647461 112.15014648 C-57.63647461 116.44014648 -57.63647461 120.73014648 -57.63647461 125.15014648 C-55.65647461 125.81014648 -53.67647461 126.47014648 -51.63647461 127.15014648 C-51.63647461 128.47014648 -51.63647461 129.79014648 -51.63647461 131.15014648 C-57.57647461 131.15014648 -63.51647461 131.15014648 -69.63647461 131.15014648 C-68.79084961 132.24327148 -67.94522461 133.33639648 -67.07397461 134.46264648 C-56.11658509 149.15905043 -51.59301843 160.91882958 -54.05834961 179.29467773 C-54.51566441 181.60550329 -55.04921485 183.86969253 -55.63647461 186.15014648 C-55.97749314 187.81525767 -56.31268321 189.48159981 -56.63647461 191.15014648 C-53.66647461 190.82014648 -50.69647461 190.49014648 -47.63647461 190.15014648 C-41.63647461 199.15014648 -41.63647461 199.15014648 -39.82397461 202.16577148 C-32.65127551 211.95138239 -19.34059051 218.09108906 -7.63647461 220.15014648 C-7.63647461 221.80014648 -7.63647461 223.45014648 -7.63647461 225.15014648 C-9.28969727 225.18881836 -9.28969727 225.18881836 -10.97631836 225.22827148 C-34.43565906 226.00555451 -57.57439878 232.04043151 -74.13647461 249.71264648 C-80.61048455 257.52656422 -81.26874097 264.24058714 -80.63647461 274.15014648 C-80.46760742 275.12081055 -80.29874023 276.09147461 -80.12475586 277.09155273 C-79.56253095 280.61332957 -79.54034813 283.96073997 -79.57397461 287.52514648 C-79.58299805 288.77038086 -79.59202148 290.01561523 -79.60131836 291.29858398 C-79.61291992 292.23959961 -79.62452148 293.18061523 -79.63647461 294.15014648 C-81.85522461 294.42749023 -81.85522461 294.42749023 -84.63647461 294.15014648 C-86.85522461 292.34155273 -86.85522461 292.34155273 -89.13647461 289.71264648 C-89.55807861 289.23110107 -89.97968262 288.74955566 -90.4140625 288.25341797 C-94.16298509 283.89220522 -97.60953188 279.30022272 -101.07397461 274.71264648 C-120.04689773 249.68886947 -144.903874 232.57408105 -175.63647461 225.15014648 C-176.38647461 223.46264648 -176.38647461 223.46264648 -176.63647461 221.15014648 C-173.94579722 216.60877474 -171.21268616 215.2313889 -166.26147461 213.71264648 C-165.62806152 213.51219727 -164.99464844 213.31174805 -164.34204102 213.10522461 C-160.2375955 211.83574844 -156.09525448 210.74153487 -151.93334961 209.67749023 C-150.95414551 209.42346436 -149.97494141 209.16943848 -148.96606445 208.90771484 C-147.0280268 208.41079443 -145.08562652 207.93052707 -143.13891602 207.46875 C-137.59725187 206.06028088 -134.34855773 204.74013381 -130.63647461 200.15014648 C-129.94682617 199.39733398 -129.25717773 198.64452148 -128.54663086 197.86889648 C-127.9369043 197.13670898 -127.32717773 196.40452148 -126.69897461 195.65014648 C-126.07120117 194.91795898 -125.44342773 194.18577148 -124.79663086 193.43139648 C-123.37558385 191.23058874 -123.37558385 191.23058874 -124.11303711 188.93530273 C-125.82313219 185.80889813 -127.59709298 182.7297401 -129.41821289 179.66674805 C-135.64738044 169.17154453 -140.87531847 158.3962945 -145.89697266 147.27954102 C-149.33358054 139.74529921 -153.01199542 132.53824696 -157.47875977 125.5612793 C-162.14201353 118.16993174 -164.12518357 111.3128677 -163.69897461 102.58764648 C-163.47851185 97.47009611 -163.77718281 93.38874148 -165.16259766 88.39892578 C-170.39908445 63.5492195 -162.53260131 35.59354935 -149.19897461 14.58764648 C-145.22663696 8.6030905 -140.70735635 3.22990893 -135.63647461 -1.84985352 C-134.95198242 -2.54594727 -134.26749023 -3.24204102 -133.56225586 -3.95922852 C-120.03237979 -16.86387926 -103.76523555 -22.01160072 -85.55786133 -23.6706543 C-83.9373451 -23.82179266 -82.31961753 -24.00240553 -80.70288086 -24.18969727 C-49.79184384 -27.62425693 -23.49000267 -20.69929186 0 0 Z M-48.63647461 30.15014648 C-44.86199166 35.39248392 -40.8171485 40.28785259 -36.57397461 45.15014648 C-32.41942931 49.9225342 -28.74022606 54.60773318 -25.63647461 60.15014648 C-26.28874023 60.2597168 -26.94100586 60.36928711 -27.61303711 60.48217773 C-35.00218682 61.78909184 -35.00218682 61.78909184 -41.63647461 65.15014648 C-42.60554288 67.73429074 -42.60554288 67.73429074 -42.63647461 70.15014648 C-37.05219194 73.23761046 -31.41237806 74.66236321 -25.26928711 76.16772461 C-19.13400754 77.76351702 -14.28726241 79.67396478 -10.63647461 85.15014648 C-10.76538086 87.41967773 -10.76538086 87.41967773 -11.19897461 89.96264648 C-11.59271899 93.37177507 -11.59714685 95.31026663 -10.76147461 98.71264648 C-8.4972249 101.30987409 -7.87783676 101.69866828 -4.63647461 102.33764648 C-0.5554506 102.56144458 2.00513786 101.55904361 5.61352539 99.71264648 C12.54835246 96.23552031 19.68498823 95.60390654 27.11743164 98.06030273 C28.65392719 98.74839625 30.17163229 99.48175091 31.65649414 100.27514648 C33.34045559 101.30219691 33.34045559 101.30219691 35.36352539 101.15014648 C34.81695304 97.32414004 33.35909846 95.54660494 30.36352539 93.15014648 C27.31912405 92.66819373 27.31912405 92.66819373 24.11352539 92.90014648 C23.03586914 92.93624023 21.95821289 92.97233398 20.84790039 93.00952148 C20.02805664 93.05592773 19.20821289 93.10233398 18.36352539 93.15014648 C17.86852539 91.17014648 17.86852539 91.17014648 17.36352539 89.15014648 C19.67352539 89.15014648 21.98352539 89.15014648 24.36352539 89.15014648 C24.36352539 88.16014648 24.36352539 87.17014648 24.36352539 86.15014648 C16.01287663 85.19071024 11.09218488 87.29842885 4.36352539 92.15014648 C3.67000977 92.71088867 2.97649414 93.27163086 2.26196289 93.84936523 C0.36352539 95.15014648 0.36352539 95.15014648 -2.63647461 95.15014648 C-3.57397461 92.65014648 -3.57397461 92.65014648 -3.63647461 89.15014648 C1.28667943 80.53897599 11.1447449 74.93879374 20.36352539 72.15014648 C20.48935646 66.54437219 20.11810418 61.34951153 19.11352539 55.83764648 C18.98075195 55.10070557 18.84797852 54.36376465 18.71118164 53.60449219 C17.56185287 47.56985712 16.04724796 41.70505753 13.36352539 36.15014648 C13.0303833 35.45139404 12.69724121 34.7526416 12.35400391 34.03271484 C9.70951537 31.53159242 7.56014865 31.71799274 4.02903748 31.7482605 C2.75408165 31.78863937 2.75408165 31.78863937 1.45336914 31.82983398 C0.57129288 31.84023712 -0.31078339 31.85064026 -1.21958923 31.86135864 C-4.04671788 31.89700474 -6.8724022 31.95922761 -9.69897461 32.02514648 C-12.50042077 32.08071635 -15.30162693 32.13024 -18.1033783 32.16751099 C-19.8455678 32.19165419 -21.58765614 32.22647954 -23.32936096 32.2741394 C-28.5471598 32.35823732 -33.25900412 31.78656004 -38.34324646 30.59793091 C-41.81815662 29.91940677 -45.10644325 30.01940458 -48.63647461 30.15014648 Z M-44.63647461 87.15014648 C-46.61647461 89.79014648 -48.59647461 92.43014648 -50.63647461 95.15014648 C-42.71647461 94.82014648 -34.79647461 94.49014648 -26.63647461 94.15014648 C-28.68487658 90.05334254 -29.89326221 88.61726375 -33.63647461 86.15014648 C-37.96708777 84.88705098 -40.77419466 84.73622151 -44.63647461 87.15014648 Z " fill="#000000" transform="translate(223.636474609375,71.849853515625)"/>
<path d="M0 0 C3.68226926 0.70212761 7.33969958 0.88605112 11.078125 1.08984375 C11.81869141 1.13302734 12.55925781 1.17621094 13.32226562 1.22070312 C15.13653964 1.32604807 16.9510605 1.42712691 18.765625 1.52734375 C18.765625 4.16734375 18.765625 6.80734375 18.765625 9.52734375 C16.455625 9.52734375 14.145625 9.52734375 11.765625 9.52734375 C12.260625 11.01234375 12.260625 11.01234375 12.765625 12.52734375 C13.16177154 17.77628542 12.63119817 21.08076469 9.765625 25.52734375 C5.30146744 29.65668949 2.35724212 30.61651713 -3.68359375 30.41992188 C-5.0512882 30.36651666 -6.41857523 30.30139821 -7.78515625 30.22460938 C-10.01809693 30.12274473 -10.01809693 30.12274473 -13.234375 30.52734375 C-15.24822782 32.38941272 -15.24822782 32.38941272 -16.234375 34.52734375 C-15.67564697 34.57221924 -15.11691895 34.61709473 -14.54125977 34.66333008 C-11.95870335 34.87736587 -9.37793754 35.10851352 -6.796875 35.33984375 C-5.91837891 35.41009766 -5.03988281 35.48035156 -4.13476562 35.55273438 C2.74161374 36.18708672 9.74571091 37.11141247 15.265625 41.52734375 C18.14459239 45.36596694 18.14745759 48.86898617 17.765625 53.52734375 C15.95907629 58.78989869 13.54528058 62.52616466 8.765625 65.52734375 C0.11305022 69.69912087 -8.7179796 71.14298107 -18.046875 68.27734375 C-22.64705108 66.53805456 -26.04181666 64.53301005 -28.609375 60.21484375 C-29.44657004 56.6149051 -29.12977101 54.10892778 -28.234375 50.52734375 C-26.41098448 47.82166749 -25.15980064 45.99005657 -22.234375 44.52734375 C-23.20375 43.97046875 -24.173125 43.41359375 -25.171875 42.83984375 C-28.234375 40.52734375 -28.234375 40.52734375 -29.296875 38.08984375 C-29.213118 34.65580655 -28.37105461 33.21542455 -26.234375 30.52734375 C-23.046875 28.21484375 -23.046875 28.21484375 -20.234375 26.52734375 C-20.894375 25.74359375 -21.554375 24.95984375 -22.234375 24.15234375 C-25.07708901 19.86796763 -25.0270182 15.49349605 -24.234375 10.52734375 C-21.6552071 5.17061042 -17.88658764 1.98822881 -12.359375 -0.22265625 C-8.2128861 -0.71047847 -4.08922209 -0.86502775 0 0 Z M-9.859375 9.15234375 C-12.41210669 11.36906528 -12.41210669 11.36906528 -13.296875 14.46484375 C-13.45949799 17.61507273 -13.45949799 17.61507273 -11.734375 20.40234375 C-9.31908193 22.83964799 -9.31908193 22.83964799 -5.671875 23.02734375 C-2.38923126 22.7405666 -2.38923126 22.7405666 -0.296875 21.52734375 C1.42815203 18.28023404 1.53821287 15.05006093 0.765625 11.52734375 C-1.39958 8.92740272 -1.39958 8.92740272 -4.234375 7.52734375 C-7.3237878 7.26416644 -7.3237878 7.26416644 -9.859375 9.15234375 Z M-17.04296875 49.83984375 C-18.40222182 51.56800966 -18.40222182 51.56800966 -18.984375 54.15234375 C-17.86271547 57.70426559 -16.46461014 58.6814951 -13.234375 60.52734375 C-7.37095558 62.26630464 -3.1878777 61.61328057 2.13671875 58.73046875 C4.0617788 57.45114668 4.0617788 57.45114668 5.765625 54.52734375 C5.93276069 51.90202851 5.93276069 51.90202851 5.765625 49.52734375 C-1.64582501 44.92022618 -10.5219354 43.05168373 -17.04296875 49.83984375 Z " fill="#B11116" transform="translate(524.234375,149.47265625)"/>
<path d="M0 0 C3.96 0 7.92 0 12 0 C12 8.58 12 17.16 12 26 C13.98 24.68 15.96 23.36 18 22 C22.6936353 20.18310892 27.58287752 20.48220525 32.25 22.1875 C35.45627056 24.30072378 36.41487991 25.51043643 38 29 C38.39858368 32.08532592 38.34961452 35.13179041 38.29296875 38.23828125 C38.28872391 39.11904831 38.28447906 39.99981537 38.28010559 40.90727234 C38.26336644 43.7093311 38.2257233 46.51066009 38.1875 49.3125 C38.17244699 51.21678646 38.15875966 53.12108424 38.14648438 55.02539062 C38.11347854 59.68387322 38.06172929 64.34181305 38 69 C34.04 69 30.08 69 26 69 C25.67 57.12 25.34 45.24 25 33 C18.50182958 32.86636503 18.50182958 32.86636503 13.40966797 35.89599609 C10.05489423 40.90317311 11.01492096 47.96418828 11.0625 53.8125 C11.04938434 55.2832347 11.03314112 56.75394506 11.01367188 58.22460938 C10.97291309 61.81683573 10.97495343 65.40756095 11 69 C7.04 69 3.08 69 -1 69 C-1.02259641 60.59413481 -1.04094143 52.18829326 -1.05181217 43.78240585 C-1.05702969 39.87917705 -1.06410684 35.97597012 -1.07543945 32.07275391 C-1.08630847 28.30561356 -1.09228537 24.53849424 -1.09487724 20.77133942 C-1.09672424 19.33444131 -1.10033095 17.89754436 -1.10573006 16.46065521 C-1.11299363 14.44741438 -1.11340851 12.43415237 -1.11352539 10.42089844 C-1.115746 9.27506287 -1.11796661 8.12922729 -1.12025452 6.94866943 C-1 4 -1 4 0 0 Z " fill="#B11116" transform="translate(355,128)"/>
<path d="M0 0 C0.76527405 1.73924255 0.76527405 1.73924255 1.49633789 4.02905273 C1.77324966 4.88341415 2.05016144 5.73777557 2.33546448 6.61802673 C2.62823776 7.54716385 2.92101105 8.47630096 3.22265625 9.43359375 C3.52819931 10.38186539 3.83374237 11.33013702 4.14854431 12.30714417 C5.12699262 15.34836195 6.09506088 18.3927641 7.0625 21.4375 C8.0355395 24.47797861 9.01067556 27.51777265 9.98716736 30.55714417 C10.59507187 32.45164875 11.20057213 34.34692675 11.80348206 36.24302673 C12.07724167 37.10054031 12.35100128 37.95805389 12.63305664 38.84155273 C12.87351212 39.59798569 13.11396759 40.35441864 13.36170959 41.1337738 C13.97359375 43.05860101 13.97359375 43.05860101 15 45 C23.415 22.23 23.415 22.23 32 -1 C35.96 0.32 39.92 1.64 44 3 C43.24770013 7.51379922 42.52547004 10.6168343 40.86694336 14.72998047 C40.20637184 16.38101273 40.20637184 16.38101273 39.53245544 18.06539917 C39.05639359 19.23748932 38.58033173 20.40957947 38.08984375 21.6171875 C37.35949669 23.43562668 37.35949669 23.43562668 36.61439514 25.290802 C35.3259263 28.49867234 34.03023267 31.70357513 32.73297119 34.90789795 C31.40806773 38.18422064 30.0900752 41.46332037 28.77148438 44.7421875 C26.18771477 51.16418333 23.59566047 57.58280116 21 64 C17.04 64 13.08 64 9 64 C5.96651731 57.33909893 3.25036999 50.61043279 0.671875 43.76171875 C0.27800598 42.71852982 -0.11586304 41.67534088 -0.52166748 40.60054016 C-1.34664166 38.41189903 -2.1701272 36.22269625 -2.9921875 34.03295898 C-4.25371964 30.6776067 -5.52515156 27.3261101 -6.796875 23.97460938 C-7.59956775 21.84137505 -8.40167202 19.70791917 -9.203125 17.57421875 C-9.58430481 16.57315598 -9.96548462 15.5720932 -10.35821533 14.54069519 C-10.7056781 13.60905045 -11.05314087 12.6774057 -11.41113281 11.7175293 C-11.71883606 10.90084274 -12.02653931 10.08415619 -12.34356689 9.24272156 C-13 7 -13 7 -13 3 C-11.21189234 2.30329584 -9.41937948 1.61788811 -7.625 0.9375 C-6.62726563 0.55464844 -5.62953125 0.17179687 -4.6015625 -0.22265625 C-2 -1 -2 -1 0 0 Z " fill="#B11116" transform="translate(303,55)"/>
<path d="M0 0 C-1.3697164 3.99500618 -3.25722422 6.80009492 -6 10 C-7.11375 9.360625 -8.2275 8.72125 -9.375 8.0625 C-14.92632493 5.33089567 -20.35629361 4.12088354 -26.4609375 5.59375 C-32.2225859 7.81418593 -34.92189483 10.70950675 -38 16 C-40.1825979 22.54779371 -40.301734 31.22326702 -37.375 37.5625 C-34.64487958 42.09003066 -31.06346181 45.3121794 -26 47 C-18.32130445 47.59953779 -12.13949248 46.85579699 -5 44 C-3.35 46.97 -1.7 49.94 0 53 C-8.88896668 59.50412196 -18.28794926 59.83704452 -29 59 C-37.41409248 57.15838343 -44.00570084 52.44904581 -48.79296875 45.3359375 C-53.94566024 36.05864498 -55.12128774 27.11641408 -52.9375 16.75 C-50.31932392 7.85054946 -46.10087983 2.10589808 -38.24609375 -2.80859375 C-25.20716159 -9.72489689 -12.10697046 -7.63265529 0 0 Z " fill="#B11116" transform="translate(348,139)"/>
<path d="M0 0 C5.40841132 3.92374939 8.40576352 7.7585354 10.1875 14.3125 C10.98128248 22.70259619 11.32942483 31.2476947 6.1875 38.3125 C1.96859532 42.79455568 -1.55446356 46.05997113 -7.88671875 46.55078125 C-21.64408408 46.83336497 -21.64408408 46.83336497 -26.8125 42.3125 C-33.68561124 34.07987226 -34.66384839 26.88138214 -33.8125 16.3125 C-32.40663837 10.1046893 -29.92774324 5.34854387 -24.7890625 1.5 C-16.98155382 -3.19067715 -8.29332011 -4.28158392 0 0 Z M-18.484375 10.90625 C-22.28005117 14.92520124 -22.17993548 19.61309695 -22.0703125 24.875 C-21.63173089 29.02158977 -19.90922372 31.86681873 -17.4375 35.125 C-15.17538197 36.77808625 -13.61399568 37.17909544 -10.8125 37.3125 C-6.23929117 35.41629146 -3.91462259 32.75031436 -1.8125 28.3125 C-1.02440924 21.92896488 -0.83718666 15.65861104 -4.8125 10.3125 C-10.02008694 6.30666389 -13.56838352 6.43716684 -18.484375 10.90625 Z " fill="#B11116" transform="translate(481.8125,73.6875)"/>
<path d="M0 0 C3.4716541 2.54483242 5.24078768 5.8027909 6 10 C6.091573 11.81072652 6.13065998 13.62446069 6.1328125 15.4375 C6.13474609 17.02884766 6.13474609 17.02884766 6.13671875 18.65234375 C6.13285156 19.75707031 6.12898438 20.86179688 6.125 22 C6.13080078 23.61068359 6.13080078 23.61068359 6.13671875 25.25390625 C6.12793005 32.55731646 5.68985368 39.7291612 5 47 C1.04 47 -2.92 47 -7 47 C-6.99476318 46.04633545 -6.98952637 45.0926709 -6.98413086 44.11010742 C-6.96602735 40.57105447 -6.95454839 37.03200562 -6.94506836 33.49291992 C-6.9400404 31.9613374 -6.93321716 30.42975967 -6.92456055 28.89819336 C-6.91242771 26.69643978 -6.90675633 24.49474967 -6.90234375 22.29296875 C-6.89718246 21.60849167 -6.89202118 20.92401459 -6.88670349 20.21879578 C-6.8863464 17.19093758 -7.03383381 14.89849858 -8 12 C-11.38119211 10.7704756 -13.12122663 11.03353632 -16.62890625 12.00390625 C-18.60577835 13.04421552 -18.60577835 13.04421552 -20 15 C-21.04134462 20.21027716 -20.93613513 25.39989878 -20.875 30.6875 C-20.88171855 32.86167219 -20.89797926 35.03557518 -20.91702271 37.20967102 C-20.92914918 39.17449619 -20.91799584 41.13942354 -20.90576172 43.10424805 C-21 46 -21 46 -22 47 C-25.96 47 -29.92 47 -34 47 C-33.67 31.82 -33.34 16.64 -33 1 C-29.04 1 -25.08 1 -21 1 C-21 1.99 -21 2.98 -21 4 C-19.9275 3.360625 -18.855 2.72125 -17.75 2.0625 C-12.00209105 -1.36413803 -6.47062236 -1.71712309 0 0 Z " fill="#B11116" transform="translate(483,150)"/>
<path d="M0 0 C5.75424087 6.32966496 4.13570705 18.10601207 4.0625 26.125 C4.05798828 27.08148438 4.05347656 28.03796875 4.04882812 29.0234375 C4.03720017 31.34902758 4.02086102 33.6744776 4 36 C5.65 36 7.3 36 9 36 C10.33454536 38.1980747 11.02787435 39.52613603 10.875 42.125 C9.69895517 44.64509607 8.5508532 44.97251097 6 46 C3.74609375 46.265625 3.74609375 46.265625 1.4375 46.25 C0.67308594 46.25515625 -0.09132813 46.2603125 -0.87890625 46.265625 C-3 46 -3 46 -6 44 C-6 43.34 -6 42.68 -6 42 C-6.928125 42.66 -7.85625 43.32 -8.8125 44 C-13.68420375 46.77251433 -18.53910351 46.82242417 -24 46 C-28.16450699 43.95427727 -30.29719254 42.2722223 -32 38 C-32.75487364 32.73972263 -32.7151544 28.37922634 -30.25 23.625 C-24.6682548 18.12299401 -15.65922543 15.52221992 -8 15 C-8.33 12.69 -8.66 10.38 -9 8 C-14.34150011 7.33231249 -16.93605178 8.94056849 -21.0703125 12.00390625 C-23 13 -23 13 -25.1328125 12.78125 C-27.61888214 11.7410535 -28.56195587 10.2289684 -30 8 C-28.5304003 4.19390191 -26.61508531 2.8268074 -23.125 0.8125 C-22.26132812 0.30332031 -21.39765625 -0.20585937 -20.5078125 -0.73046875 C-13.55162043 -4.25190555 -6.80786017 -3.79669125 0 0 Z M-13.375 24.8125 C-14.16648437 25.14894531 -14.95796875 25.48539063 -15.7734375 25.83203125 C-18.00872568 27.00457715 -19.44173132 28.02044044 -21 30 C-20.75546876 33.34192692 -20.39456443 34.60543557 -18 37 C-13.7830297 36.7249802 -11.04057098 35.96227302 -8 33 C-7.51738333 30.49119384 -7.51738333 30.49119384 -7.75 27.8125 C-7.78609375 26.91144531 -7.8221875 26.01039063 -7.859375 25.08203125 C-7.90578125 24.39496094 -7.9521875 23.70789063 -8 23 C-9.90584724 23 -11.65453614 24.0691928 -13.375 24.8125 Z " fill="#B11116" transform="translate(433,152)"/>
<path d="M0 0 C3.96 0 7.92 0 12 0 C12 5.28 12 10.56 12 16 C15.3 16 18.6 16 22 16 C22 18.97 22 21.94 22 25 C17.05 25.495 17.05 25.495 12 26 C12 34.58 12 43.16 12 52 C15.70152678 52.92538169 16.63458162 53.08174162 20 52 C23 56.625 23 56.625 23 60 C17.55241565 63.53356823 12.29953634 63.86426566 6 63 C1.81109874 60.69182992 0.43012202 58.46550704 -1 54 C-1.22705078 50.77026367 -1.22705078 50.77026367 -1.1953125 47.16796875 C-1.18564453 45.22954102 -1.18564453 45.22954102 -1.17578125 43.25195312 C-1.15907327 41.8971327 -1.14214342 40.54231499 -1.125 39.1875 C-1.11496003 37.81315749 -1.10583596 36.43880797 -1.09765625 35.06445312 C-1.07411242 31.70945683 -1.04122567 28.35481801 -1 25 C-2.98 25 -4.96 25 -7 25 C-7 22.03 -7 19.06 -7 16 C-4.69 16 -2.38 16 0 16 C0 10.72 0 5.44 0 0 Z " fill="#B11116" transform="translate(423,57)"/>
<path d="M0 0 C0.53367187 0.42152344 1.06734375 0.84304687 1.6171875 1.27734375 C0.83155128 5.04681045 -0.27482279 6.87975169 -3.3828125 9.27734375 C-5.77544094 9.12780447 -7.18419378 8.38989436 -9.2578125 7.21484375 C-13.08196853 5.52771609 -16.50123095 5.98348323 -20.3828125 7.27734375 C-23.43780087 13.38732049 -24.04241808 19.70374975 -22.3828125 26.27734375 C-21.46260518 29.3155895 -21.46260518 29.3155895 -19.3828125 31.27734375 C-16.06471786 32.5374069 -16.06471786 32.5374069 -12.3828125 32.27734375 C-8.98003438 30.48300722 -8.98003438 30.48300722 -6.3828125 28.27734375 C-2.5875994 29.76832033 -0.77238519 32.03435224 1.6171875 35.27734375 C0.53849357 36.24089619 -0.54599993 37.19795792 -1.6328125 38.15234375 C-2.23609375 38.68601563 -2.839375 39.2196875 -3.4609375 39.76953125 C-9.26471377 44.32290044 -15.24017287 43.94969491 -22.3828125 43.27734375 C-28.19513261 41.73635497 -31.12184525 37.33190223 -34.21875 32.49609375 C-37.66517379 25.92707123 -37.30763407 17.54212603 -35.76953125 10.44921875 C-33.5537535 4.08495844 -30.01875538 -0.05769528 -24.3828125 -3.72265625 C-15.38437112 -7.72196353 -7.62090136 -5.60360394 0 0 Z " fill="#B11116" transform="translate(411.3828125,76.72265625)"/>
<path d="M0 0 C-0.66 3.63 -1.32 7.26 -2 11 C-4.27864583 11.68359375 -6.55729167 12.3671875 -8.8359375 13.05078125 C-11.33184629 13.91368185 -11.33184629 13.91368185 -13 17 C-13.30188788 19.274928 -13.49748639 21.56459107 -13.6328125 23.85546875 C-13.67437469 24.51710526 -13.71593689 25.17874176 -13.75875854 25.86042786 C-13.8892754 27.96903929 -14.00729278 30.07813854 -14.125 32.1875 C-14.21141605 33.61919057 -14.29864611 35.05083226 -14.38671875 36.48242188 C-14.60058645 39.98776372 -14.80325222 43.49365086 -15 47 C-18.96 47 -22.92 47 -27 47 C-27.11424112 31.62822233 -26.90370704 16.3468821 -26 1 C-22.04 1 -18.08 1 -14 1 C-13.67 1.99 -13.34 2.98 -13 4 C-12.401875 3.360625 -11.80375 2.72125 -11.1875 2.0625 C-7.4074509 -1.50154629 -4.8315027 -0.96630054 0 0 Z " fill="#B11116" transform="translate(527,72)"/>
<path d="M0 0 C17 0 17 0 24 4 C25.85749351 7.71498702 25.58415825 11.9553391 25 16 C22.625 19.125 22.625 19.125 20 21 C19.34 21 18.68 21 18 21 C18.36351562 21.47421387 18.72703125 21.94842773 19.1015625 22.43701172 C20.73934936 24.57925793 22.36973945 26.72702158 24 28.875 C24.57234375 29.62136719 25.1446875 30.36773437 25.734375 31.13671875 C26.27578125 31.85214844 26.8171875 32.56757813 27.375 33.3046875 C27.87773437 33.96452637 28.38046875 34.62436523 28.8984375 35.30419922 C30 37 30 37 30 39 C27 41 27 41 24.97412109 40.83178711 C22.57382576 39.82043339 21.83676826 38.85342822 20.4140625 36.69140625 C19.95773437 36.02689453 19.50140625 35.36238281 19.03125 34.67773438 C18.09794248 33.27388432 17.16821608 31.8676465 16.2421875 30.45898438 C15.78328125 29.79318359 15.324375 29.12738281 14.8515625 28.44140625 C14.44760254 27.82982666 14.04364258 27.21824707 13.62744141 26.58813477 C11.60512847 24.38365651 11.60512847 24.38365651 6 23 C6 28.61 6 34.22 6 40 C4.02 40 2.04 40 0 40 C0 26.8 0 13.6 0 0 Z M6 4 C6 8.95 6 13.9 6 19 C7.588125 18.896875 9.17625 18.79375 10.8125 18.6875 C11.70582031 18.62949219 12.59914063 18.57148438 13.51953125 18.51171875 C16.35973838 17.92578626 17.32497949 17.34066384 19 15 C19.5872225 10.40478383 19.5872225 10.40478383 17.80078125 6.32421875 C15.44270413 4.59018807 13.71358386 4.50088207 10.8125 4.3125 C8.4303125 4.1578125 8.4303125 4.1578125 6 4 Z " fill="#000000" transform="translate(300,270)"/>
<path d="M0 0 C0.72574219 0.68707031 1.45148438 1.37414062 2.19921875 2.08203125 C5.91276177 4.62505722 7.8471404 4.14683013 12.25 3.5625 C17.71871421 2.96181743 21.5322017 3.21212322 26.59375 5.36328125 C31.89281477 6.76546884 37.62145331 5.63502045 43 5 C44.60725635 8.21451269 44.05748185 11.43612536 44 15 C40.90147863 15.26558755 39.39555337 15.26260984 36.76049805 13.51318359 C33.31203817 11.62288959 30.93810972 11.6124496 27.01953125 11.6015625 C26.36546799 11.59869232 25.71140472 11.59582214 25.03752136 11.59286499 C23.6634331 11.59083333 22.28931532 11.59630016 20.9152832 11.60888672 C18.80810577 11.62503367 16.70282346 11.60897041 14.59570312 11.58984375 C13.25780826 11.59182482 11.91991458 11.59566569 10.58203125 11.6015625 C8.76022339 11.60663818 8.76022339 11.60663818 6.90161133 11.61181641 C5.46531372 11.80396729 5.46531372 11.80396729 4 12 C3.01 13.485 3.01 13.485 2 15 C1.01 15.33 0.02 15.66 -1 16 C-1 17.32 -1 18.64 -1 20 C-1.99 20 -2.98 20 -4 20 C-5.140625 18.46875 -5.140625 18.46875 -6.25 16.5 C-7.45776992 14.54156946 -7.45776992 14.54156946 -9 13 C-12.71158857 12.41439551 -12.71158857 12.41439551 -16 13 C-15.52439708 8.00616936 -14.24059968 4.8536861 -11 1 C-7.02907385 -0.94321918 -4.18713873 -1.50307544 0 0 Z " fill="#000000" transform="translate(191,240)"/>
<path d="M0 0 C3.96 0 7.92 0 12 0 C11.67 15.18 11.34 30.36 11 46 C7.04 46 3.08 46 -1 46 C-1.02466963 39.77034801 -1.04284548 33.54072429 -1.05493164 27.31103516 C-1.05996872 25.19058741 -1.06679859 23.07014315 -1.07543945 20.94970703 C-1.08753234 17.90656678 -1.09323447 14.86347234 -1.09765625 11.8203125 C-1.10281754 10.86818878 -1.10797882 9.91606506 -1.11329651 8.93508911 C-1.11337204 8.05432709 -1.11344757 7.17356506 -1.11352539 6.26611328 C-1.115746 5.48889923 -1.11796661 4.71168518 -1.12025452 3.91091919 C-1 2 -1 2 0 0 Z " fill="#B11116" transform="translate(355,73)"/>
<path d="M0 0 C1.98 0 3.96 0 6 0 C6.02473355 5.48095369 6.04287596 10.96187483 6.05493164 16.44287109 C6.05995792 18.30713466 6.06677992 20.1713943 6.07543945 22.03564453 C6.08757963 24.71648124 6.09324539 27.3972658 6.09765625 30.078125 C6.10281754 30.91055725 6.10797882 31.7429895 6.11329651 32.60064697 C6.11340981 33.77140778 6.11340981 33.77140778 6.11352539 34.96582031 C6.115746 35.64976868 6.11796661 36.33371704 6.12025452 37.03839111 C5.99213985 39.12821596 5.56725751 40.98847744 5 43 C2.66666667 43 0.33333333 43 -2 43 C-2.99 43.495 -2.99 43.495 -4 44 C-8.61458744 44.46145874 -11.6412076 44.74619403 -15.375 41.8125 C-19.64003071 37.24282424 -20.46328661 33.46490585 -20.3203125 27.34765625 C-19.6584781 22.4968944 -17.50532147 18.55549886 -14.125 15.0625 C-8.65126644 12.32563322 -5.89053463 13.03648846 0 15 C0 10.05 0 5.1 0 0 Z M-10.75 20.3125 C-13.86412024 24.03214362 -14.27483553 26.08059178 -14.23046875 30.9609375 C-13.85797515 34.25655889 -12.31839875 36.68160125 -10 39 C-6.52280508 39.38635499 -4.68753685 39.50946975 -1.828125 37.390625 C0.56604946 34.25978147 0.50412995 32.34201527 0.4375 28.4375 C0.43556641 26.73400391 0.43556641 26.73400391 0.43359375 24.99609375 C0.24770816 22.0244914 0.24770816 22.0244914 -1.37890625 20.16015625 C-5.18788387 17.43421323 -7.11158071 17.25292014 -10.75 20.3125 Z " fill="#000000" transform="translate(402,213)"/>
<path d="M0 0 C1.20269531 -0.02578125 2.40539062 -0.0515625 3.64453125 -0.078125 C7.47738045 0.2768467 9.88465027 1.32797413 13.1875 3.25 C12.5275 4.9 11.8675 6.55 11.1875 8.25 C10.11822266 7.76660156 10.11822266 7.76660156 9.02734375 7.2734375 C3.23332558 5.18535942 -2.70880688 5.31085129 -8.3125 7.8125 C-12.28245793 11.68320898 -13.61203277 15.34556132 -14.1875 20.8125 C-13.62192291 25.99695662 -12.12552164 29.06507803 -8.25 32.5625 C-4.08641707 35.44498049 -0.7891655 35.634195 4.1875 35.25 C6.6018305 34.72908441 8.83841325 34.03302892 11.1875 33.25 C11.6825 35.725 11.6825 35.725 12.1875 38.25 C5.6940798 41.71315744 -0.95075276 42.70605628 -8.12109375 40.55859375 C-13.66973833 38.05173921 -17.30840213 34.44885604 -19.921875 28.890625 C-21.88280747 23.07663224 -21.77087818 16.56349422 -19.25 10.9375 C-14.72131516 3.07699703 -8.88034177 0.1134868 0 0 Z " fill="#000000" transform="translate(318.8125,215.75)"/>
<path d="M0 0 C1.98 0 3.96 0 6 0 C6 5.28 6 10.56 6 16 C7.98 15.01 9.96 14.02 12 13 C15.79073238 12.4584668 17.3848523 12.61801632 20.65307617 14.64746094 C23 17 23 17 23.56762695 19.84082031 C23.54144287 20.90913086 23.51525879 21.97744141 23.48828125 23.078125 C23.47216797 24.23828125 23.45605469 25.3984375 23.43945312 26.59375 C23.39755859 27.8003125 23.35566406 29.006875 23.3125 30.25 C23.28994141 31.47203125 23.26738281 32.6940625 23.24414062 33.953125 C23.18521758 36.96998502 23.10299265 39.98437515 23 43 C21.35 43 19.7 43 18 43 C17.505 31.12 17.505 31.12 17 19 C10.47904154 19.54649997 10.47904154 19.54649997 6 23 C5.3625747 25.20554477 5.3625747 25.20554477 5.390625 27.66796875 C5.35839844 28.56064453 5.32617188 29.45332031 5.29296875 30.37304688 C5.27169922 31.76620117 5.27169922 31.76620117 5.25 33.1875 C5.22035156 34.12787109 5.19070313 35.06824219 5.16015625 36.03710938 C5.08946438 38.35815916 5.03676835 40.67820535 5 43 C3.35 43 1.7 43 0 43 C0 28.81 0 14.62 0 0 Z " fill="#000000" transform="translate(484,267)"/>
<path d="M0 0 C2.8185071 2.9437098 3.36655392 4.96171919 3.29296875 8.984375 C3.28330078 9.91894531 3.27363281 10.85351562 3.26367188 11.81640625 C3.23853516 12.78449219 3.21339844 13.75257813 3.1875 14.75 C3.16719727 16.22533203 3.16719727 16.22533203 3.14648438 17.73046875 C3.11118726 20.15420415 3.06188054 22.57682145 3 25 C4.65 25.33 6.3 25.66 8 26 C8 26.99 8 27.98 8 29 C5.22899606 30.38550197 3.0665294 30.1877467 0 30 C-0.99 29.34 -1.98 28.68 -3 28 C-3.515625 28.33 -4.03125 28.66 -4.5625 29 C-7.96121795 30.39434583 -10.35594448 30.44751559 -14 30 C-16.9375 27.875 -16.9375 27.875 -19 25 C-19.55405751 21.12159743 -19.32106991 18.20528701 -17 15 C-12.58909962 11.27830281 -7.53023781 11.31141145 -2 11 C-2.33 9.02 -2.66 7.04 -3 5 C-7.3177458 5.50797009 -11.03302114 6.19682779 -15 8 C-15.66 6.68 -16.32 5.36 -17 4 C-7.02906704 -1.94421003 -7.02906704 -1.94421003 0 0 Z M-11 17 C-13.28728734 18.83883881 -13.28728734 18.83883881 -13.125 21.625 C-13.08375 22.40875 -13.0425 23.1925 -13 24 C-10.78223378 25.30514736 -10.78223378 25.30514736 -8 26 C-5.05427988 25.3160651 -5.05427988 25.3160651 -3 23 C-2.56043082 20.20324111 -2.76579019 17.85735969 -3 15 C-6.24792684 15 -8.07658794 15.6507329 -11 17 Z " fill="#000000" transform="translate(444,227)"/>
<path d="M0 0 C2.8185071 2.9437098 3.36655392 4.96171919 3.29296875 8.984375 C3.28330078 9.91894531 3.27363281 10.85351562 3.26367188 11.81640625 C3.23853516 12.78449219 3.21339844 13.75257813 3.1875 14.75 C3.16719727 16.22533203 3.16719727 16.22533203 3.14648438 17.73046875 C3.11118726 20.15420415 3.06188054 22.57682145 3 25 C4.65 25.33 6.3 25.66 8 26 C8 26.99 8 27.98 8 29 C5.22899606 30.38550197 3.0665294 30.1877467 0 30 C-0.99 29.34 -1.98 28.68 -3 28 C-3.99 28.66 -4.98 29.32 -6 30 C-9.97615614 30.31556795 -12.75939556 30.50896592 -16.4375 29 C-18.78109047 26.0002042 -19.21701893 22.76889545 -19 19 C-18.09098818 16.35604626 -17.40694764 15.26370207 -15.046875 13.734375 C-10.53300435 11.79985901 -7.01756212 10.48537824 -2 11 C-2.33 9.02 -2.66 7.04 -3 5 C-7.3177458 5.50797009 -11.03302114 6.19682779 -15 8 C-15.66 6.68 -16.32 5.36 -17 4 C-7.02906704 -1.94421003 -7.02906704 -1.94421003 0 0 Z M-11 17 C-13.28728734 18.83883881 -13.28728734 18.83883881 -13.125 21.625 C-13.08375 22.40875 -13.0425 23.1925 -13 24 C-10.78223378 25.30514736 -10.78223378 25.30514736 -8 26 C-5.10814725 25.29885344 -5.10814725 25.29885344 -3 23 C-2.26463554 20.26787948 -2.14047349 17.85629427 -2 15 C-5.83441243 15 -7.62485432 15.40124678 -11 17 Z " fill="#000000" transform="translate(354,227)"/>
<path d="M0 0 C1.98 0 3.96 0 6 0 C6.33 7.59 6.66 15.18 7 23 C12.55016982 23.45927396 12.55016982 23.45927396 15.33691406 21.79174805 C17.4319182 19.53466711 17.53169573 18.38094268 17.609375 15.33203125 C17.64160156 14.43935547 17.67382812 13.54667969 17.70703125 12.62695312 C17.72121094 11.69818359 17.73539062 10.76941406 17.75 9.8125 C17.77964844 8.87212891 17.80929687 7.93175781 17.83984375 6.96289062 C17.91053562 4.64184084 17.96323165 2.32179465 18 0 C19.98 0 21.96 0 24 0 C24 9.57 24 19.14 24 29 C22.02 29 20.04 29 18 29 C17.67 28.34 17.34 27.68 17 27 C16.175 27.515625 15.35 28.03125 14.5 28.5625 C9.89461437 30.45399767 7.81245156 30.18338973 3 29 C0.72507044 26.76155973 0.05378221 25.43411302 -0.34057617 22.25097656 C-0.32486572 21.22456055 -0.30915527 20.19814453 -0.29296875 19.140625 C-0.28330078 18.02558594 -0.27363281 16.91054688 -0.26367188 15.76171875 C-0.23853516 14.60285156 -0.21339844 13.44398438 -0.1875 12.25 C-0.17396484 11.07566406 -0.16042969 9.90132813 -0.14648438 8.69140625 C-0.1111478 5.79380702 -0.06180979 2.89713573 0 0 Z " fill="#000000" transform="translate(419,335)"/>
<path d="M0 0 C2.17871094 1.19458008 2.17871094 1.19458008 4 3 C4.45410156 5.4519043 4.45410156 5.4519043 4.390625 8.32421875 C4.37128906 9.86625977 4.37128906 9.86625977 4.3515625 11.43945312 C4.31804687 12.51130859 4.28453125 13.58316406 4.25 14.6875 C4.23195313 15.77095703 4.21390625 16.85441406 4.1953125 17.97070312 C4.14813508 20.64802146 4.08232249 23.32356909 4 26 C5.65 26 7.3 26 9 26 C9.33 26.99 9.66 27.98 10 29 C7.24075815 30.80411967 6.11027897 31.0127245 2.75 30.625 C1.8425 30.41875 0.935 30.2125 0 30 C0 29.34 0 28.68 0 28 C-0.86625 28.495 -1.7325 28.99 -2.625 29.5 C-6.22100908 31.09822626 -8.12882641 31.57655777 -12 31 C-14.875 29.5625 -14.875 29.5625 -17 27 C-17.78723668 23.82737701 -17.77525489 21.17458388 -17 18 C-14.23577731 14.50835029 -12.70527429 13.3375022 -8.375 12.48046875 C-5.90884728 12.21773941 -3.47879484 12.05388684 -1 12 C-1.66 10.02 -2.32 8.04 -3 6 C-6.9492568 6.55105909 -10.34920174 7.38935371 -14 9 C-14.33 7.35 -14.66 5.7 -15 4 C-9.93241942 1.05158948 -6.03023603 -0.81176254 0 0 Z M-11 19 C-12.06546898 21.48952515 -12.06546898 21.48952515 -12 24 C-11.34 24.66 -10.68 25.32 -10 26 C-4.96494948 25.76135558 -4.96494948 25.76135558 -1 23 C-0.83322718 19.41656024 -0.83322718 19.41656024 -1 16 C-5.23795734 15.63674651 -7.66753954 16.31551796 -11 19 Z " fill="#000000" transform="translate(427,280)"/>
<path d="M0 0 C3.76635174 1.88317587 5.57767171 3.09775319 7.375 6.9375 C8 10 8 10 8 15 C1.73 15 -4.54 15 -11 15 C-9.70164931 20.43364312 -9.70164931 20.43364312 -7 25 C-1.98120022 25.38606152 0.90712202 24.97663853 5 22 C5.66 23.32 6.32 24.64 7 26 C1.93881978 30.24044829 -1.32211945 31.56592208 -8 31 C-11.98271878 29.08523136 -13.66198017 27.58590104 -15.875 23.75 C-17.6828473 17.72384234 -17.87472016 13.35191584 -15.25 7.6875 C-11.78512009 1.44337013 -7.12508495 -0.69853774 0 0 Z M-8.4375 6.8125 C-10.19374606 8.82320672 -10.19374606 8.82320672 -10 11 C-6.04 11 -2.08 11 2 11 C1.67 9.35 1.34 7.7 1 6 C-4.01576689 4.67979753 -4.01576689 4.67979753 -8.4375 6.8125 Z " fill="#000000" transform="translate(348,280)"/>
<path d="M0 0 C2.35400289 1.93859062 3.25827966 2.83466794 4.125 5.75 C4.125 8.39 4.125 11.03 4.125 13.75 C-1.815 13.75 -7.755 13.75 -13.875 13.75 C-12.73249293 21.23550424 -12.73249293 21.23550424 -9.875 23.75 C-6.37162019 24.13080215 -4.51221374 24.15245078 -1.5 22.25 C-0.96375 21.755 -0.4275 21.26 0.125 20.75 C1.445 21.41 2.765 22.07 4.125 22.75 C3.125 25.75 3.125 25.75 1.0625 27.375 C-3.86614479 29.68202522 -7.90070987 30.395441 -13.125 28.6875 C-16.60730677 26.23405659 -18.09073748 24.66165245 -19.875 20.75 C-20.62770475 15.21992431 -20.82091995 9.73936684 -18.1875 4.6875 C-13.26169846 -1.56959925 -7.3353207 -3.18926987 0 0 Z M-7.875 2.75 C-11.79103304 5.54420492 -11.79103304 5.54420492 -13.875 9.75 C-9.585 9.75 -5.295 9.75 -0.875 9.75 C-2.25388902 4.69723152 -2.25388902 4.69723152 -5.5 3.4375 C-6.675625 3.0971875 -6.675625 3.0971875 -7.875 2.75 Z " fill="#000000" transform="translate(486.875,335.25)"/>
<path d="M0 0 C2.99452434 2.24589325 3.81623122 3.44869367 5 7 C5 9.31 5 11.62 5 14 C-1.27 14 -7.54 14 -14 14 C-13.01 17.3 -12.02 20.6 -11 24 C-5.60550707 24.27429625 -2.48074195 24.36055646 2 21 C2.99 22.32 3.98 23.64 5 25 C-0.09968746 29.27271112 -3.29420333 30.45463028 -10 30 C-14.7879994 28.25053868 -16.78597732 26.54927426 -19 22 C-19.79875126 16.31519373 -20.0428392 10.09905333 -17.375 4.875 C-12.44625884 -1.09137088 -7.24607755 -2.05259611 0 0 Z M-11.375 6.4375 C-13.089257 8.63503326 -13.089257 8.63503326 -13 10 C-8.71 10 -4.42 10 0 10 C-1.45288986 5.4158037 -1.45288986 5.4158037 -3 4 C-7.10224361 3.45303419 -8.41699852 3.40165638 -11.375 6.4375 Z " fill="#000000" transform="translate(401,281)"/>
<path d="M0 0 C2.87023715 2.12839124 3.88475356 3.27902821 4.45410156 6.84082031 C4.42268066 8.44328613 4.42268066 8.44328613 4.390625 10.078125 C4.37128906 11.81835938 4.37128906 11.81835938 4.3515625 13.59375 C4.31804687 14.8003125 4.28453125 16.006875 4.25 17.25 C4.23195313 18.47203125 4.21390625 19.6940625 4.1953125 20.953125 C4.148181 23.96954078 4.08239413 26.98437491 4 30 C2.35 30 0.7 30 -1 30 C-1.495 18.12 -1.495 18.12 -2 6 C-7.62133487 5.5662968 -7.62133487 5.5662968 -10.82421875 7.359375 C-14.12474758 11.36504374 -13.78069857 15.20417262 -13.8125 20.25 C-13.83763672 21.18585938 -13.86277344 22.12171875 -13.88867188 23.0859375 C-13.9474757 25.39104732 -13.98380267 27.69426174 -14 30 C-15.65 30 -17.3 30 -19 30 C-19 20.43 -19 10.86 -19 1 C-17.35 1 -15.7 1 -14 1 C-13.67 1.66 -13.34 2.32 -13 3 C-12.34 2.505 -11.68 2.01 -11 1.5 C-6.88248556 -0.55875722 -4.58746602 -0.50971845 0 0 Z " fill="#000000" transform="translate(334,334)"/>
<path d="M0 0 C2.27734375 1.0234375 2.27734375 1.0234375 4 2 C3.67 3.32 3.34 4.64 3 6 C1.01432292 5.67447917 -0.97135417 5.34895833 -2.95703125 5.0234375 C-5.31755824 4.80422152 -5.31755824 4.80422152 -8 7 C-7.88147073 8.93124991 -7.88147073 8.93124991 -7 11 C-4.73133499 12.50205208 -4.73133499 12.50205208 -2 13.625 C2.90676417 15.81352834 2.90676417 15.81352834 4 18 C4.48809142 22.31147425 4.50255798 24.29946463 1.9375 27.875 C-1.61749927 30.4467016 -3.61998004 31 -8 31 C-10.5219936 30.21832947 -12.6317437 29.20829403 -15 28 C-14.67 26.68 -14.34 25.36 -14 24 C-10.7 24.33 -7.4 24.66 -4 25 C-3.67 23.35 -3.34 21.7 -3 20 C-3.62648438 19.66226562 -4.25296875 19.32453125 -4.8984375 18.9765625 C-5.71570313 18.53054688 -6.53296875 18.08453125 -7.375 17.625 C-8.18710937 17.18414062 -8.99921875 16.74328125 -9.8359375 16.2890625 C-12 15 -12 15 -14 13 C-14.56109143 9.94057516 -14.51169103 7.06470267 -14 4 C-10.39472152 -0.76827154 -5.56699353 -0.85646054 0 0 Z " fill="#000000" transform="translate(358,334)"/>
<path d="M0 0 C1.5625 1.625 1.5625 1.625 1.5625 4.625 C-0.75 5.25 -0.75 5.25 -3.4375 5.625 C-4.4275 4.965 -5.4175 4.305 -6.4375 3.625 C-8.99210214 3.55227438 -8.99210214 3.55227438 -11.4375 4.625 C-14.69511844 8.21961345 -14.96817189 11.86208492 -14.78125 16.52734375 C-14.53636851 18.823014 -14.53636851 18.823014 -12.875 21.25 C-9.42508698 23.19610478 -7.23439953 22.43862133 -3.4375 21.625 C-2.1175 21.625 -0.7975 21.625 0.5625 21.625 C0.5625 22.945 0.5625 24.265 0.5625 25.625 C-2.89567223 28.6509007 -6.08520205 29.09745867 -10.51171875 28.9140625 C-14.38201155 28.33312605 -16.67047926 26.50159513 -19.1875 23.625 C-22.1224002 18.92915968 -21.89699404 13.98019412 -21.4375 8.625 C-19.77507976 3.90022669 -17.61094833 1.37336841 -13.4375 -1.375 C-9.02259062 -3.2881274 -4.08676954 -2.30535717 0 0 Z " fill="#000000" transform="translate(474.4375,228.375)"/>
<path d="M0 0 C1.98 0 3.96 0 6 0 C6 3.63 6 7.26 6 11 C8.31 11 10.62 11 13 11 C13 12.32 13 13.64 13 15 C10.69 15 8.38 15 6 15 C6 21.27 6 27.54 6 34 C9.13349732 35.04449911 9.98968256 34.93423645 13 34 C13.33 35.32 13.66 36.64 14 38 C10.68400526 39.9738064 8.65290758 41.02511183 4.75 40.875 C2 40 2 40 0 37 C-0.22705078 34.63989258 -0.22705078 34.63989258 -0.1953125 31.89453125 C-0.18564453 30.42016602 -0.18564453 30.42016602 -0.17578125 28.91601562 C-0.15902344 27.89185547 -0.14226562 26.86769531 -0.125 25.8125 C-0.11597656 24.77673828 -0.10695313 23.74097656 -0.09765625 22.67382812 C-0.0740786 20.11565315 -0.0411703 17.55794252 0 15 C-1.65 15 -3.3 15 -5 15 C-5 13.68 -5 12.36 -5 11 C-3.35 11 -1.7 11 0 11 C0 7.37 0 3.74 0 0 Z " fill="#000000" transform="translate(370,324)"/>
<path d="M0 0 C2.5625 2.5625 2.5625 2.5625 4 5 C3.34 5.66 2.68 6.32 2 7 C0.25 6.6875 0.25 6.6875 -2 6 C-4.96655046 5.08885 -4.96655046 5.08885 -8 5 C-11.51190149 7.1830739 -11.96237194 8.84447068 -12.9375 12.875 C-13.24467415 16.98345424 -12.53297118 19.64994135 -10 23 C-7.05270463 24.15811388 -7.05270463 24.15811388 -4 24 C-3.01 23.34 -2.02 22.68 -1 22 C1.1875 22.375 1.1875 22.375 3 23 C2.69611836 25.93752254 2.19330344 26.84080893 -0.125 28.75 C-3.7098228 30.30861861 -6.12117952 30.41558791 -10 30 C-13.20809196 28.4688652 -15.72143197 26.72316667 -18 24 C-20.00972877 17.84336748 -20.76214943 12.00467268 -18 6 C-12.69922654 -0.27723173 -7.96282923 -2.33771133 0 0 Z " fill="#000000" transform="translate(476,281)"/>
<path d="M0 0 C2.9375 1 2.9375 1 5 2 C4.67 3.32 4.34 4.64 4 6 C0.7 6 -2.6 6 -6 6 C-6.33 7.32 -6.66 8.64 -7 10 C-6.38511719 10.32613281 -5.77023437 10.65226562 -5.13671875 10.98828125 C-3.92435547 11.64376953 -3.92435547 11.64376953 -2.6875 12.3125 C-1.88699219 12.74175781 -1.08648437 13.17101562 -0.26171875 13.61328125 C1.89441243 14.93526151 3.44477428 16.01167345 5 18 C5.74796748 24.73170732 5.74796748 24.73170732 3.5625 28.4375 C-0.16644134 30.71124472 -3.6564266 31.22505562 -8 31 C-11.5625 29.5625 -11.5625 29.5625 -14 28 C-13.34 26.68 -12.68 25.36 -12 24 C-11.01 24.33 -10.02 24.66 -9 25 C-6.66700175 25.03954234 -4.33291811 25.04401732 -2 25 C-1.67 24.01 -1.34 23.02 -1 22 C-3.17395019 19.60045121 -5.18775381 18.27606053 -8.125 16.9375 C-11.88967972 15.22064057 -11.88967972 15.22064057 -13 13 C-13.58394161 5.75912409 -13.58394161 5.75912409 -11.125 2.5625 C-7.28791217 -0.25888811 -4.76172441 -0.24212158 0 0 Z " fill="#000000" transform="translate(373,280)"/>
<path d="M0 0 C1.98 0 3.96 0 6 0 C6.0270043 1.45823212 6.04639787 2.91660675 6.0625 4.375 C6.07410156 5.18710937 6.08570313 5.99921875 6.09765625 6.8359375 C6 9 6 9 5 11 C7.64 11 10.28 11 13 11 C13 12.32 13 13.64 13 15 C10.36 15 7.72 15 5 15 C5.33 21.93 5.66 28.86 6 36 C7.98 35.34 9.96 34.68 12 34 C12.66 35.32 13.32 36.64 14 38 C10.66206131 39.98686827 8.67954041 41.03920425 4.75 40.8125 C2 40 2 40 0 38 C-0.22705078 35.66162109 -0.22705078 35.66162109 -0.1953125 32.7734375 C-0.18564453 31.2265625 -0.18564453 31.2265625 -0.17578125 29.6484375 C-0.15902344 28.56820313 -0.14226562 27.48796875 -0.125 26.375 C-0.11597656 25.28703125 -0.10695313 24.1990625 -0.09765625 23.078125 C-0.07403409 20.38519848 -0.04109556 17.69270745 0 15 C-1.65 15 -3.3 15 -5 15 C-5 13.68 -5 12.36 -5 11 C-3.35 11 -1.7 11 0 11 C0 7.37 0 3.74 0 0 Z " fill="#000000" transform="translate(402,324)"/>
<path d="M0 0 C1.65 0 3.3 0 5 0 C5 3.63 5 7.26 5 11 C7.64 11 10.28 11 13 11 C13 12.32 13 13.64 13 15 C10.36 15 7.72 15 5 15 C5.33 21.93 5.66 28.86 6 36 C7.98 35.34 9.96 34.68 12 34 C12.66 35.32 13.32 36.64 14 38 C10.66206131 39.98686827 8.67954041 41.03920425 4.75 40.8125 C2 40 2 40 0 38 C-0.22705078 35.66162109 -0.22705078 35.66162109 -0.1953125 32.7734375 C-0.18564453 31.2265625 -0.18564453 31.2265625 -0.17578125 29.6484375 C-0.15902344 28.56820313 -0.14226562 27.48796875 -0.125 26.375 C-0.11597656 25.28703125 -0.10695313 24.1990625 -0.09765625 23.078125 C-0.07403409 20.38519848 -0.04109556 17.69270745 0 15 C-1.65 15 -3.3 15 -5 15 C-5 13.68 -5 12.36 -5 11 C-3.35 11 -1.7 11 0 11 C0 7.37 0 3.74 0 0 Z " fill="#000000" transform="translate(452,324)"/>
<path d="M0 0 C-0.33 1.98 -0.66 3.96 -1 6 C-1.94875 6.268125 -2.8975 6.53625 -3.875 6.8125 C-7.25267273 7.74986588 -7.25267273 7.74986588 -9 11 C-9.36433373 13.12337771 -9.36433373 13.12337771 -9.4140625 15.44921875 C-9.45273437 16.29677734 -9.49140625 17.14433594 -9.53125 18.01757812 C-9.57765625 19.33918945 -9.57765625 19.33918945 -9.625 20.6875 C-9.66367187 21.58017578 -9.70234375 22.47285156 -9.7421875 23.39257812 C-9.83640218 25.5948462 -9.92201588 27.79710722 -10 30 C-11.98 30 -13.96 30 -16 30 C-16 20.43 -16 10.86 -16 1 C-14.02 1 -12.04 1 -10 1 C-9.67 1.66 -9.34 2.32 -9 3 C-8.443125 2.505 -7.88625 2.01 -7.3125 1.5 C-4.61837017 -0.24754367 -3.14624993 -0.26218749 0 0 Z " fill="#000000" transform="translate(456,280)"/>
<path d="M0 0 C1.65 0 3.3 0 5 0 C5 13.2 5 26.4 5 40 C3.02 40 1.04 40 -1 40 C-1.10890351 26.62329823 -1.09848966 13.33880305 0 0 Z " fill="#000000" transform="translate(301,324)"/>
<path d="M0 0 C0.556875 0.226875 1.11375 0.45375 1.6875 0.6875 C1.3575 2.3375 1.0275 3.9875 0.6875 5.6875 C-0.26125 5.97625 -1.21 6.265 -2.1875 6.5625 C-5.36461578 7.45575109 -5.36461578 7.45575109 -7.3125 9.6875 C-7.77410295 11.81273208 -7.77410295 11.81273208 -7.9453125 14.2578125 C-8.07099609 15.60166016 -8.07099609 15.60166016 -8.19921875 16.97265625 C-8.27785156 17.90980469 -8.35648437 18.84695312 -8.4375 19.8125 C-8.52386719 20.75738281 -8.61023438 21.70226562 -8.69921875 22.67578125 C-8.91164083 25.01242418 -9.11571542 27.3494967 -9.3125 29.6875 C-10.9625 29.6875 -12.6125 29.6875 -14.3125 29.6875 C-14.3125 20.1175 -14.3125 10.5475 -14.3125 0.6875 C-12.3325 0.6875 -10.3525 0.6875 -8.3125 0.6875 C-7.9825 1.3475 -7.6525 2.0075 -7.3125 2.6875 C-6.57 2.171875 -5.8275 1.65625 -5.0625 1.125 C-2.3125 -0.3125 -2.3125 -0.3125 0 0 Z " fill="#000000" transform="translate(380.3125,226.3125)"/>
<path d="M0 0 C9.21634444 -0.83784949 17.33409845 2.21417631 26 5 C26 5.66 26 6.32 26 7 C21.68004625 9.9699682 18.75806381 11.7570265 13.33203125 10.76171875 C8.2892284 9.11457209 3.64534796 6.53171464 -1 4 C-0.67 2.68 -0.34 1.36 0 0 Z " fill="#000000" transform="translate(195,256)"/>
<path d="M0 0 C1.65 0 3.3 0 5 0 C5 9.57 5 19.14 5 29 C3.02 29 1.04 29 -1 29 C-1.02897435 24.72918086 -1.04678996 20.45838691 -1.0625 16.1875 C-1.07087891 14.97255859 -1.07925781 13.75761719 -1.08789062 12.50585938 C-1.09111328 11.34248047 -1.09433594 10.17910156 -1.09765625 8.98046875 C-1.10289307 7.90692139 -1.10812988 6.83337402 -1.11352539 5.72729492 C-1 3 -1 3 0 0 Z " fill="#000000" transform="translate(388,335)"/>
<path d="M0 0 C1.65 0 3.3 0 5 0 C5 9.57 5 19.14 5 29 C3.35 29 1.7 29 0 29 C0 19.43 0 9.86 0 0 Z " fill="#000000" transform="translate(415,227)"/>
<path d="M0 0 C3.96 0 7.92 0 12 0 C12 3.63 12 7.26 12 11 C8.04 11 4.08 11 0 11 C0 7.37 0 3.74 0 0 Z " fill="#B11116" transform="translate(355,56)"/>
<path d="M0 0 C1.98 0 3.96 0 6 0 C6 1.98 6 3.96 6 6 C4.02 6 2.04 6 0 6 C0 4.02 0 2.04 0 0 Z " fill="#000000" transform="translate(387,324)"/>
<path d="M0 0 C1.65 0 3.3 0 5 0 C5 1.98 5 3.96 5 6 C3.35 6 1.7 6 0 6 C0 4.02 0 2.04 0 0 Z " fill="#000000" transform="translate(415,216)"/>
</svg>
